<?xml version="1.0" encoding="UTF-8" standalone="no"?><!DOCTYPE svg PUBLIC "-//W3C//DTD SVG 1.1//EN" "http://www.w3.org/Graphics/SVG/1.1/DTD/svg11.dtd"><svg width="100%" height="100%" viewBox="0 0 2968 898" version="1.1" xmlns="http://www.w3.org/2000/svg" xmlns:xlink="http://www.w3.org/1999/xlink" xml:space="preserve" xmlns:serif="http://www.serif.com/" style="fill-rule:evenodd;clip-rule:evenodd;stroke-linejoin:round;stroke-miterlimit:2;"><path d="M131.598,886.318c-4.722,0 -12.733,-57.31 -13.52,-61.98c-23.305,-138.32 -23.091,-289.9 33.248,-420.552c38.203,-88.595 105.708,-159.213 186.541,-210.896c89.354,-57.132 192.4,-81.559 297.465,-86.261c120.9,-5.411 240.911,11.704 361.465,16.848c123.5,5.269 245.67,-13.312 366.3,-38.076c107.35,-22.038 214.04,-47.72 322.5,-63.943c105.98,-16.39 216.39,-26.808 323.61,-18.582c87.49,6.711 171.3,31.566 245.28,79.236c68.35,44.038 125.34,104.465 197.45,142.813c39.92,21.23 83.41,34.223 128.33,39.127c42.94,4.686 85.4,2.067 127.75,12.348c66.37,16.111 125.17,53.888 168.24,106.774c83.86,102.954 108.43,250.944 79.2,378.634c-10.11,44.14 -27.17,87.14 -52.97,124.51l-2770.89,0Z" style="fill:#ebf3fa;fill-rule:nonzero;"/><path d="M900.347,116.084l0,770.234l-859.301,0c0,0 -121.509,-397.46 121.496,-612.265c218.013,-192.699 459.966,-176.514 737.805,-157.969Z" style="fill:#dceaff;fill-rule:nonzero;"/><path d="M734.625,364.725l-86.673,0c-3.979,0 -7.234,-3.255 -7.234,-7.234l0,-83.654c0,-3.979 3.255,-7.235 7.234,-7.235l86.673,0c3.979,0 7.234,3.256 7.234,7.235l0,83.654c0,3.979 -3.255,7.234 -7.234,7.234Z" style="fill:#9fc1f4;fill-rule:nonzero;"/><path d="M730.87,360.475l-79.163,0c-3.635,0 -6.608,-2.974 -6.608,-6.608l0,-76.406c0,-3.635 2.973,-6.608 6.608,-6.608l79.163,0c3.635,0 6.608,2.973 6.608,6.608l0,76.406c0,3.634 -2.973,6.608 -6.608,6.608Z" style="fill:#f0f6ff;fill-rule:nonzero;"/><path d="M689.194,279.808c0,-1.156 0.938,-2.094 2.094,-2.094c1.158,0 2.096,0.938 2.096,2.094c0,1.158 -0.938,2.096 -2.096,2.096c-1.156,0 -2.094,-0.938 -2.094,-2.096Z" style="fill:#9fc1f4;fill-rule:nonzero;"/><path d="M706.099,282.77c0.562,-1.012 1.838,-1.376 2.849,-0.814c1.012,0.562 1.376,1.838 0.813,2.849c-0.562,1.012 -1.837,1.376 -2.848,0.814c-1.012,-0.562 -1.376,-1.838 -0.814,-2.849Z" style="fill:#9fc1f4;fill-rule:nonzero;"/><path d="M720.583,294.277c0.972,-0.628 2.268,-0.348 2.896,0.624c0.627,0.973 0.347,2.269 -0.625,2.897c-0.972,0.627 -2.269,0.347 -2.896,-0.625c-0.628,-0.973 -0.348,-2.269 0.625,-2.896Z" style="fill:#9fc1f4;fill-rule:nonzero;"/><path d="M727.757,312.086c1.157,0 2.095,0.939 2.095,2.095c0,1.158 -0.938,2.096 -2.095,2.096c-1.158,0 -2.096,-0.938 -2.096,-2.096c0,-1.156 0.938,-2.095 2.096,-2.095Z" style="fill:#9fc1f4;fill-rule:nonzero;"/><path d="M724.093,332.755c0.819,0.818 0.819,2.145 0,2.963c-0.818,0.818 -2.144,0.818 -2.962,0c-0.819,-0.818 -0.819,-2.145 0,-2.963c0.818,-0.818 2.144,-0.818 2.962,0Z" style="fill:#9fc1f4;fill-rule:nonzero;"/><path d="M710.937,345.946c0.819,0.818 0.819,2.145 0,2.962c-0.818,0.819 -2.144,0.819 -2.963,0c-0.818,-0.817 -0.818,-2.144 0,-2.962c0.819,-0.819 2.145,-0.819 2.963,0Z" style="fill:#9fc1f4;fill-rule:nonzero;"/><path d="M689.194,352.744c0,-1.156 0.938,-2.094 2.094,-2.094c1.158,0 2.096,0.938 2.096,2.094c0,1.158 -0.938,2.096 -2.096,2.096c-1.156,0 -2.094,-0.938 -2.094,-2.096Z" style="fill:#9fc1f4;fill-rule:nonzero;"/><path d="M676.411,282.77c-0.562,-1.012 -1.838,-1.376 -2.849,-0.814c-1.011,0.562 -1.376,1.838 -0.813,2.849c0.562,1.012 1.837,1.376 2.849,0.814c1.011,-0.562 1.375,-1.838 0.813,-2.849Z" style="fill:#9fc1f4;fill-rule:nonzero;"/><path d="M661.928,294.277c-0.973,-0.628 -2.269,-0.348 -2.897,0.624c-0.627,0.973 -0.347,2.269 0.625,2.897c0.973,0.627 2.27,0.347 2.896,-0.625c0.628,-0.973 0.348,-2.269 -0.624,-2.896Z" style="fill:#9fc1f4;fill-rule:nonzero;"/><path d="M654.754,312.086c-1.158,0 -2.096,0.939 -2.096,2.095c0,1.158 0.938,2.096 2.096,2.096c1.157,0 2.095,-0.938 2.095,-2.096c0,-1.156 -0.938,-2.095 -2.095,-2.095Z" style="fill:#9fc1f4;fill-rule:nonzero;"/><path d="M658.417,332.755c-0.819,0.818 -0.819,2.145 0,2.963c0.818,0.818 2.144,0.818 2.963,0c0.818,-0.818 0.818,-2.145 0,-2.963c-0.819,-0.818 -2.145,-0.818 -2.963,0Z" style="fill:#9fc1f4;fill-rule:nonzero;"/><path d="M671.573,345.946c-0.818,0.818 -0.818,2.145 0,2.962c0.818,0.819 2.145,0.819 2.963,0c0.818,-0.817 0.818,-2.144 0,-2.962c-0.818,-0.819 -2.145,-0.819 -2.963,0Z" style="fill:#9fc1f4;fill-rule:nonzero;"/><path d="M690.723,314.181c0,-1.156 0.939,-2.095 2.096,-2.095c1.157,0 2.095,0.939 2.095,2.095c0,1.158 -0.938,2.096 -2.095,2.096c-1.157,0 -2.096,-0.938 -2.096,-2.096Z" style="fill:#9fc1f4;fill-rule:nonzero;"/><rect x="692.533" y="288.008" width="0.572" height="26.173" style="fill:#9fc1f4;fill-rule:nonzero;"/><path d="M693.085,314.819l-1.06,-1.35l13.876,-10.892l1.059,1.35l-13.875,10.892Z" style="fill:#9fc1f4;fill-rule:nonzero;"/><path d="M2741.54,886.318l-12.59,0l0,-529.742l-269.44,0l0,529.742l-12.95,0l0,-539.212l294.98,0l0,539.212Z" style="fill:#c9ddf6;"/><path d="M2728.95,886.318l0,0Z" style="fill:#e9f1fe;fill-rule:nonzero;"/><path d="M2728.95,886.318l-269.44,0l0,-529.742l269.44,0l0,529.742Zm-33.79,-280.4c-6.58,0 -11.91,5.33 -11.91,11.91c0,6.58 5.33,11.91 11.91,11.91c6.58,0 11.91,-5.33 11.91,-11.91c0,-6.58 -5.33,-11.91 -11.91,-11.91Zm-157.48,-170.4l0,37.781l113.89,0l0,-37.781l-113.89,0Z" style="fill:#e3edfc;fill-rule:nonzero;"/><path d="M2695.16,629.738c-6.58,0 -11.91,-5.33 -11.91,-11.91c0,-6.58 5.33,-11.91 11.91,-11.91c6.58,0 11.91,5.33 11.91,11.91c0,6.58 -5.33,11.91 -11.91,11.91Z" style="fill:#d3e2f6;fill-rule:nonzero;"/><path d="M2648.9,470.628l-108.55,0l0,-32.44l108.55,0l0,32.44Zm-79.45,-13.16l0,3.61l50.36,0l0,-3.61l-50.36,0Zm-9.79,-9.73l0,3.62l69.94,0l0,-3.62l-69.94,0Z" style="fill:#f9fbfd;fill-rule:nonzero;"/><rect x="2559.66" y="447.738" width="69.94" height="3.62" style="fill:#c9ddf6;fill-rule:nonzero;"/><rect x="2569.45" y="457.468" width="50.36" height="3.61" style="fill:#c9ddf6;fill-rule:nonzero;"/><path d="M2651.57,473.299l-113.89,0l0,-37.781l113.89,0l0,37.781Zm-111.22,-35.111l0,32.44l108.55,0l0,-32.44l-108.55,0Z" style="fill:#c9ddf6;fill-rule:nonzero;"/><rect x="1172.49" y="347.106" width="294.97" height="539.212" style="fill:#bad4f4;fill-rule:nonzero;"/><rect x="1185.44" y="356.576" width="269.44" height="529.742" style="fill:#dfebfd;fill-rule:nonzero;"/><path d="M1409.17,617.828c0,-6.58 5.34,-11.91 11.91,-11.91c6.58,0 11.92,5.33 11.92,11.91c0,6.58 -5.34,11.91 -11.92,11.91c-6.57,0 -11.91,-5.33 -11.91,-11.91Z" style="fill:#c8dbf4;fill-rule:nonzero;"/><rect x="1264.94" y="436.858" width="111.22" height="35.11" style="fill:#fff;fill-rule:nonzero;"/><rect x="1285.58" y="447.738" width="69.94" height="3.62" style="fill:#bad4f4;fill-rule:nonzero;"/><rect x="1295.37" y="457.468" width="50.36" height="3.61" style="fill:#bad4f4;fill-rule:nonzero;"/><path d="M1374.83,470.628l-108.56,0l0,-32.44l108.56,0l0,32.44Zm-111.23,-35.11l0,37.781l113.9,0l0,-37.781l-113.9,0Z" style="fill:#bad4f4;fill-rule:nonzero;"/><path d="M521.5,886.318l-12.589,0l0,-529.742l-269.438,0l0,529.742l-12.95,0l0,-539.212l294.977,0l0,539.212Z" style="fill:#c4dbf7;fill-rule:nonzero;"/><path d="M508.911,886.318l-269.438,0l0,-529.742l269.438,0l0,529.742Zm-33.791,-280.4c-6.579,0 -11.911,5.33 -11.911,11.91c0,6.58 5.332,11.91 11.911,11.91c6.578,0 11.91,-5.33 11.91,-11.91c0,-6.58 -5.332,-11.91 -11.91,-11.91Z" style="fill:#e9f2ff;fill-rule:nonzero;"/><path d="M475.12,629.738c-6.579,0 -11.911,-5.33 -11.911,-11.91c0,-6.58 5.332,-11.91 11.911,-11.91c6.578,0 11.91,5.33 11.91,11.91c0,6.58 -5.332,11.91 -11.91,11.91Z" style="fill:#cee0f7;fill-rule:nonzero;"/><path d="M2723.48,886.318l-26.41,0c0.2,-1.38 0.87,-5.6 2.1,-9.48c0.43,-1.35 0.93,-2.66 1.5,-3.8c2.57,-5.13 18.88,-1.87 18.88,-1.87c0,0 1.52,1.3 2.7,6.26c0.52,2.18 0.99,5.08 1.23,8.89Z" style="fill:#233862;fill-rule:nonzero;"/><path d="M2675,482.928c0,0 -21.05,3.7 -25.8,16.12c-4.76,12.42 -31.64,213.06 -31.64,213.06c0,0 13.31,10.54 41.88,6.76c28.57,-3.79 15.56,-235.94 15.56,-235.94Z" style="fill:#aec3ff;fill-rule:nonzero;"/><path d="M2643.67,877.988c-0.07,3.59 -0.52,6.99 -1.82,8.33l-52.24,0c0.66,-1.89 2.54,-4.73 7.91,-5.6c6.09,-0.99 15.59,-3.92 21.13,-9.79c1.98,-2.08 3.45,-4.54 4.1,-7.41c2.45,-10.94 20.32,3.36 20.32,3.36c0,0 0.72,5.76 0.6,11.11Z" style="fill:#233862;fill-rule:nonzero;"/><path d="M2621.18,872.668c5.84,1.86 16.99,7.54 24.08,4.87c4.58,-1.73 30.18,-75.79 31.84,-108.18c0.13,-2.36 0.59,-5.64 1.31,-9.65c1.52,-8.36 4.17,-19.85 7.23,-32.53c8.19,-33.96 19.27,-76.46 19.03,-90.04c-0.37,-21.08 -62.82,-4.42 -62.82,-4.42c0,0 -4.29,17.3 -5.15,42.33c-1.7,49.7 -6.36,133.64 -19.04,191.93c-0.54,2.47 1.1,4.92 3.52,5.69Z" style="fill:#ea8b49;fill-rule:nonzero;"/><path d="M2664.52,637.218l33.02,239.27c0,0 14.49,3.49 25.77,0.7c0,0 9.66,-127.26 8.86,-158.02c-0.81,-30.77 6.94,-82.33 -1.77,-88.01c-8.7,-5.69 -65.88,6.06 -65.88,6.06Z" style="fill:#ffa561;fill-rule:nonzero;"/><path d="M2734.58,493.888c0,0 -34.7,-22.43 -59.58,-10.96c-3.97,1.83 -8.49,6.93 -11.73,10.5c-9,9.91 -26.57,167.36 -26.57,167.36c0,0 49.89,16.9 97.88,-5.73l0,-161.17Z" style="fill:#fff;fill-rule:nonzero;"/><path d="M2673.02,482.368c0,0 -35.12,14.39 -39.88,25.45c-4.75,11.06 -20.22,78.98 -20.22,86.94c0,7.96 26.92,1.78 31.26,-11.06c3.6,-10.67 15.74,-43.44 22.14,-64.16l6.7,-37.17Z" style="fill:#aec3ff;fill-rule:nonzero;"/><path d="M2680.32,493.328c7.66,1.51 18.93,-0.1 27.17,-5.53c-3.72,-8.89 -5.25,-15.91 -5.79,-20.46c-0.03,-0.24 -0.05,-0.47 -0.08,-0.7c-0.24,-2.36 -0.21,-3.949 -0.09,-4.69l-19.83,0c0,0 -5.42,2.481 -5.42,4.19c0,0.921 0,1.801 -0.02,2.63c-0.04,2.281 -0.13,4.27 -0.25,5.98c-0.38,5.561 -1.01,8.18 -1.01,8.18c0,0 -2.43,8.88 5.32,10.4Z" style="fill:#ffb27d;fill-rule:nonzero;"/><path d="M2676.01,474.748c15.02,2.9 23.74,-5.3 25.69,-7.41c0.28,-0.3 0.42,-0.48 0.42,-0.48c-0.16,-0.08 -0.32,-0.15 -0.5,-0.22c-5.59,-2.26 -18.27,-0.459 -25.36,2.13c-0.04,2.281 -0.13,4.27 -0.25,5.98Z" style="fill:#e2915a;fill-rule:nonzero;"/><path d="M2706.61,458.698c-2.69,14.44 -21.32,13.96 -29.38,13.06c-2.26,-0.26 -3.69,-0.54 -3.69,-0.54c-2.55,-0.69 -3.98,-4.71 -4.64,-9.99c-1.32,-10.43 0.34,-25.75 2.1,-29.666c2.66,-5.895 7.66,-12.271 26.42,-7.671c18.77,4.604 12.63,16.297 9.19,34.807Z" style="fill:#ffb27d;fill-rule:nonzero;"/><path d="M2670.31,423.505c2.56,-3.551 8,-7.891 12.94,-10.563c10.61,-5.741 24.19,0.181 24.25,0.206c15.33,6.739 19.33,18.468 11.21,36.74c-8.6,19.32 -16.78,17.14 -16.78,17.14c0,0 1.74,-1.08 1.58,-7.099c-0.01,-0.341 -0.02,-0.63 -0.04,-0.87c-0.08,-1.24 0.36,-2.471 1.28,-3.301c1.9,-1.7 2.83,-6.84 1.24,-8.27c-1.93,-1.72 -4.63,0.37 -5.49,1.99c-0.76,1.14 -2.11,1.53 -3.37,0.74c-4.77,-3.02 -1.67,-9.05 -6.23,-12.74c-4.56,-3.69 -13.81,-0.59 -20.65,-3.53c-8.95,-3.34 -1.88,-7.767 0.06,-10.443Z" style="fill:#233862;fill-rule:nonzero;"/><path d="M2668.17,726.848c3.02,0.78 6.01,1.41 8.98,1.91c2.63,0.44 5.25,0.78 7.87,1c14.85,1.29 29.76,-0.8 47.19,-5.8c3.93,-1.12 7.98,-2.4 12.2,-3.81c0.44,-0.15 -1.15,-46.25 -2.99,-93.8c-0.19,-4.91 -0.38,-9.83 -0.57,-14.73c-0.08,-2.07 -0.16,-4.13 -0.25,-6.19c-1.67,-42.05 -3.32,-80.03 -3.67,-82.07c-0.79,-4.63 -1.54,-8.57 -2.35,-11.99c-2.38,-9.97 -5.33,-15.43 -11.76,-20.13c-0.62,-0.47 -5.77,-3.06 -10.3,-5.32c-3.76,-1.87 -7.1,-3.5 -7.1,-3.5c-1.5,0.74 -3.29,4.16 -5.17,8.97c-3.46,8.87 -7.18,22.44 -9.77,32.58l-0.02,0.05c-1.67,6.55 -2.86,11.65 -3.2,13.11c-0.58,2.47 -1.35,7.25 -2.25,13.73c-1.22,8.82 -2.68,20.8 -4.22,34.38c-0.16,1.4 -0.32,2.81 -0.48,4.24c-0.18,1.63 -0.36,3.28 -0.55,4.95c-0.06,0.53 -0.12,1.07 -0.17,1.6c-0.6,5.38 -1.19,10.94 -1.79,16.58c-0.5,4.67 -7.57,8.04 -8.06,12.79c-0.28,2.78 -0.87,28.5 -1.63,36.7c-0.54,5.86 -0.15,61.99 0.06,64.75Z" style="fill:#aec3ff;fill-rule:nonzero;"/><path d="M2719.37,540.308c0.03,0.1 1.21,42.52 -30.71,47.68c-31.91,5.15 -10.71,6.51 -10.71,6.51c0,0 60.05,-2.55 61.04,-4.13c0.99,-1.59 -19.62,-50.06 -19.62,-50.06Z" style="fill:#9db0f4;fill-rule:nonzero;"/><path d="M2692.41,606.198c0,0 0.6,0.42 1.75,1.17l0.06,0.03c4.87,3.11 19.32,11.58 40.36,17.26c2.2,0.6 4.49,1.17 6.84,1.69c-0.19,-4.91 -0.38,-9.83 -0.57,-14.73c2.78,-0.21 5.44,-0.57 7.91,-1.09c-0.09,-0.65 -0.17,-1.29 -0.26,-1.94c-2.67,-1.1 -5.33,-2.16 -7.9,-3.16c-2.09,-0.82 -4.11,-1.59 -6.02,-2.31c-8.65,-3.29 -15.05,-5.51 -15.05,-5.51l-25.59,8.1l-1.53,0.49Z" style="fill:#9db0f4;fill-rule:nonzero;"/><path d="M2685.64,605.488c0,0 3.28,0.82 8.52,1.88l0.05,0.01c9.65,1.94 25.88,4.66 40.37,4.51c2.13,-0.02 4.24,-0.11 6.27,-0.27c2.78,-0.21 5.44,-0.57 7.91,-1.09c5.29,-1.12 9.73,-3.01 12.63,-5.97c21.56,-21.95 -11.76,-100.75 -18.77,-108.42c-8.17,-8.95 -23.1,-12.09 -31.34,-13.17c-0.35,-0.04 -0.68,-0.09 -1,-0.13c-2.9,-0.34 -4.76,-0.41 -4.86,-0.42c0,0 0.64,2.08 1.73,5.6c0.42,1.37 0.9,2.95 1.44,4.71c5.06,16.58 14.83,49.17 19.14,67.54c1.57,6.73 2.42,11.55 2.03,12.99c-1.68,6.27 -19.09,9.5 -30.13,10.93c-4.6,0.59 -8.09,0.87 -8.87,0.93l-0.17,0.02l-0.63,2.61l-1.53,6.28l-1.5,6.16l-1.29,5.3Z" style="fill:#aec3ff;fill-rule:nonzero;"/><path d="M2625.52,643.258l74.03,-3.12l-15.02,-92.25l-74.03,3.11l15.02,92.26Z" style="fill:#233862;fill-rule:nonzero;"/><path d="M2690.59,585.138c0,0 -14.41,-1.01 -15.13,2.35c-1.68,7.83 12.39,14.26 16.95,13.82c4.56,-0.44 1.5,-16.7 -1.82,-16.17Z" style="fill:#ffb27d;fill-rule:nonzero;"/><path d="M2614.55,569.738c0,0 13.78,-4.31 15.27,-1.21c3.45,7.23 -8.76,16.74 -13.3,17.36c-4.53,0.63 -5.32,-15.89 -1.97,-16.15Z" style="fill:#ffb27d;fill-rule:nonzero;"/><path d="M2703.92,477.788c0,0 6.07,2.89 9.1,7.25c0,0 -22.66,39.35 -22.56,38.98c0.11,-0.37 7.66,-41.19 13.46,-46.23Z" style="fill:#9db0f4;fill-rule:nonzero;"/><path d="M2675.7,478.338c-2,0.76 -5.83,4.68 -6.69,6.85l-2.69,34.35c0,0 5.75,-25.21 8.68,-36.61c0.74,-2.89 0.6,-3.77 0.7,-4.59Z" style="fill:#9db0f4;fill-rule:nonzero;"/><path d="M2659.99,548.918c0,0 -0.59,-2.56 -3.96,-2.26c-3.37,0.29 -22.3,1.23 -22.3,1.23c0,0 -3.65,-0.06 -3.31,2.27l29.57,-1.24Z" style="fill:#c65447;fill-rule:nonzero;"/><path d="M2681.7,461.948c0,0 -2.45,2.241 -6.42,1.55c-2.35,-0.41 -3.66,-3.47 -3.66,-3.47c0,0 4.51,-0.81 10.08,1.92Z" style="fill:#fff;fill-rule:nonzero;"/><path d="M1522.79,810.088l-15.45,-120.08c-2,-15.53 9.75,-29.31 24.98,-29.31l431,0c17.029,0 31.95,11.7 36.45,28.58l30.43,114.16l-507.41,6.65Z" style="fill:#ef8e4b;fill-rule:nonzero;"/><path d="M1562.18,810.088l-15.45,-120.08c-2,-15.53 9.75,-29.31 24.98,-29.31l431.01,0c17.02,0 31.94,11.7 36.44,28.58l30.44,114.16l-507.42,6.65Z" style="fill:#f79857;fill-rule:nonzero;"/><path d="M2043.87,826.878l-504.52,0c-9.11,0 -16.56,-7.45 -16.56,-16.55l0,-33.53c0,-9.11 7.45,-16.56 16.56,-16.56l504.52,0c9.1,0 16.55,7.45 16.55,16.56l0,33.53c0,9.1 -7.45,16.55 -16.55,16.55Z" style="fill:#ef8e4b;fill-rule:nonzero;"/><path d="M2082.94,826.878l-441.05,0c-18.07,0 -32.86,-14.78 -32.86,-32.85l0,-0.93c0,-18.07 14.79,-32.86 32.86,-32.86l441.05,0c18.07,0 32.86,14.79 32.86,32.86l0,0.93c0,18.07 -14.79,32.85 -32.86,32.85Z" style="fill:#ffa561;fill-rule:nonzero;"/><path d="M1591.63,886.318c-3.25,0 -5.74,-2.99 -5.23,-6.29l8.1,-53.15l14.53,0l-14.29,56.97c-0.37,1.45 -1.65,2.47 -3.11,2.47Z" style="fill:#2e3552;fill-rule:nonzero;"/><path d="M2087,886.318c3.25,0 5.74,-2.99 5.23,-6.29l-8.1,-53.15l-14.53,0l14.29,56.97c0.37,1.45 1.65,2.47 3.11,2.47Z" style="fill:#2e3552;fill-rule:nonzero;"/><path d="M2027.08,886.318c3.25,0 5.74,-2.99 5.23,-6.29l-8.1,-53.15l-14.53,0l14.3,56.97c0.36,1.45 1.64,2.47 3.1,2.47Z" style="fill:#2e3552;fill-rule:nonzero;"/><path d="M1539.44,886.318c-3.26,0 -5.74,-2.99 -5.24,-6.29l8.11,-53.15l14.53,0l-14.3,56.97c-0.36,1.45 -1.64,2.47 -3.1,2.47Z" style="fill:#2e3552;fill-rule:nonzero;"/><path d="M736.024,842.888l0.222,-0.01c1.812,-0.03 3.213,-1.51 3.042,-3.22l-12.094,-120.78l-10.553,0.94l17.366,121.44c0.135,0.94 1.003,1.65 2.017,1.63Z" style="fill:#ed7d2b;fill-rule:nonzero;"/><path d="M619.571,842.888l-0.222,-0.01c-1.812,-0.03 -3.213,-1.51 -3.042,-3.22l12.094,-120.78l10.553,0.94l-17.366,121.44c-0.135,0.94 -1.003,1.65 -2.017,1.63Z" style="fill:#ed7d2b;fill-rule:nonzero;"/><path d="M821.345,842.888l0.222,-0.01c1.813,-0.03 3.213,-1.51 3.042,-3.22l-12.094,-120.78l-10.553,0.94l17.366,121.44c0.136,0.94 1.003,1.65 2.017,1.63Z" style="fill:#ed7d2b;fill-rule:nonzero;"/><path d="M623.173,701.308l-21.468,-106.01c-2.755,-14.35 9.138,-27.48 24.582,-27.12l41.401,0.94c14.283,0.33 26.701,9.89 30.67,23.61l31.408,108.58l-106.593,0Z" style="fill:#ed7d2b;fill-rule:nonzero;"/><path d="M636.16,701.308l-21.467,-106.01c-2.756,-14.35 9.138,-27.48 24.581,-27.12l41.402,0.94c14.282,0.33 26.7,9.89 30.67,23.61l31.408,108.58l-106.594,0Z" style="fill:#ed7d2b;fill-rule:nonzero;"/><path d="M629.156,720.648l163.801,0c3.291,0 5.984,-2.69 5.984,-5.99l0,-7.36c0,-3.29 -2.693,-5.99 -5.984,-5.99l-169.784,0l0,13.35c0,3.3 2.692,5.99 5.983,5.99Z" style="fill:#ed7d2b;fill-rule:nonzero;"/><path d="M706.024,720.648l104.419,0c2.651,0 4.82,-2.17 4.82,-4.82l0,-9.7c0,-2.65 -2.169,-4.82 -4.82,-4.82l-104.419,0c-2.652,0 -4.821,2.17 -4.821,4.82l0,9.7c0,2.65 2.169,4.82 4.821,4.82Z" style="fill:#ed7d2b;fill-rule:nonzero;"/><path d="M716.065,592.388l17.399,44.03c0,0 16.765,19.76 30.239,13.39l-42.637,-82.8l-5.001,25.38Z" style="fill:#abddda;fill-rule:nonzero;"/><path d="M834.286,834.278c-0.501,4.87 6.265,6.13 14.113,6.6c7.848,0.48 5.458,2.06 16.197,4.12c10.74,2.07 15.084,-0.83 15.878,-2.28c0.708,-1.28 -4.274,-3.35 -9.581,-5.69c-0.668,-0.29 -1.336,-0.59 -2.005,-0.89c-5.972,-2.7 -9.281,-8.12 -13.906,-13.16c-4.381,-4.77 -8.426,-19.95 -8.426,-19.95l-14.589,-3.28c0,0 3.959,13.66 5.323,19.49c0.802,3.43 -0.477,7.24 -1.606,10.14c-0.609,1.58 -1.223,3.19 -1.398,4.9Z" style="fill:#ffb27d;fill-rule:nonzero;"/><path d="M848.399,840.878c7.848,0.48 5.458,2.06 16.197,4.12c10.74,2.07 15.084,-0.83 15.878,-2.28c0.708,-1.28 -4.274,-3.35 -9.581,-5.69l-0.084,0.09c0,0 -7.593,2.49 -16.301,0.02c-7.098,-2.01 -13.935,-6.33 -18.824,-7.76c-0.609,1.58 -1.223,3.19 -1.398,4.9c-0.501,4.87 6.265,6.13 14.113,6.6Z" style="fill:#0f2549;fill-rule:nonzero;"/><path d="M812.182,665.258c-7.85,-5.51 -58.78,-29.7 -85.281,-32.54l-30.29,-11.07c0,0 -24.932,36.93 -25.13,65.18c-0.092,13.17 5.975,14.48 5.977,14.48c0,0 93.898,0.7 98.014,1.12c6.737,0.7 15.624,17.48 17.845,32.77c2.221,15.29 41.376,77.46 41.376,77.46c0,0 8.165,2.62 11.942,2.39c4.061,-0.23 5.941,-1.59 5.941,-1.59c0,0 -22.69,-135.77 -40.394,-148.2Z" style="fill:#8e312d;fill-rule:nonzero;"/><path d="M809.999,834.278c-0.502,4.87 6.265,6.13 14.113,6.6c7.848,0.48 5.458,2.06 16.197,4.12c10.74,2.07 15.083,-0.83 15.878,-2.28c0.707,-1.28 -4.274,-3.35 -9.581,-5.69c-0.668,-0.29 -1.337,-0.59 -2.005,-0.89c-5.972,-2.7 -9.282,-8.12 -13.906,-13.16c-4.381,-4.77 -8.426,-19.95 -8.426,-19.95l-14.59,-3.28c0,0 3.96,13.66 5.323,19.49c0.802,3.43 -0.476,7.24 -1.605,10.14c-0.609,1.58 -1.224,3.19 -1.398,4.9Z" style="fill:#ffb27d;fill-rule:nonzero;"/><path d="M824.112,840.878c7.848,0.48 5.458,2.06 16.197,4.12c10.74,2.07 15.083,-0.83 15.878,-2.28c0.707,-1.28 -4.274,-3.35 -9.581,-5.69l-0.084,0.09c0,0 -7.594,2.49 -16.302,0.02c-7.097,-2.01 -13.934,-6.33 -18.823,-7.76c-0.609,1.58 -1.224,3.19 -1.398,4.9c-0.502,4.87 6.265,6.13 14.113,6.6Z" style="fill:#233862;fill-rule:nonzero;"/><path d="M787.68,665.258c-6.817,-4.79 -23.977,-6.96 -48.921,-15.09c-6.007,-1.95 -29.132,-13.1 -30.664,-19.23l11.409,-5.27l-47.395,-4.02c0,0 -11.992,23.25 -12.189,51.5c-0.093,13.17 11.559,28.16 11.56,28.16c0,0 75.373,0.7 79.489,1.12c6.738,0.7 15.624,17.48 17.846,32.77c2.22,15.29 41.376,77.46 41.376,77.46c0,0 8.165,2.62 11.942,2.39c4.061,-0.23 5.94,-1.59 5.94,-1.59c0,0 -22.689,-135.77 -40.393,-148.2Z" style="fill:#a9453d;fill-rule:nonzero;"/><path d="M717.205,468.218c-7.237,-3.799 -18.249,-4.31 -20.038,-4.549c-21.409,-2.881 -34.294,28.229 -35.052,37.659c-1.397,17.37 -10.588,20.02 -23.525,30.9c-25.941,21.82 -18.334,47.17 -4.149,56.59c8.51,5.65 23.511,0 23.511,0c0.212,0.15 41.026,-22.82 61.144,-33.89c30.16,-4.29 16.552,-77.02 -1.891,-86.71Z" style="fill:#233862;fill-rule:nonzero;"/><path d="M712.74,544.218c0.094,0.05 -9.512,4.42 -16.447,2.13c-6.524,-2.15 -12.27,-11.97 -12.178,-11.98c2.832,-0.41 5.71,-3.21 6.514,-19.76l1.254,0.32l21.082,5.32c0,0 -0.834,6.68 -1.178,13c-0.291,5.3 -0.231,10.35 0.953,10.97Z" style="fill:#ffb27d;fill-rule:nonzero;"/><path d="M712.965,520.248c0,0 0,1.38 -0.788,7.59c-11.923,-3.01 -17.181,-6.96 -20.889,-11.48l21.677,3.89Z" style="fill:#ed975d;fill-rule:nonzero;"/><path d="M717.463,521.088c0,0 -27.879,4.54 -30.439,-12.86c-2.559,-17.41 -7.882,-28.539 9.81,-32.179c17.692,-3.63 22.135,2.5 24.402,8.099c2.268,5.61 3.413,35.32 -3.773,36.94Z" style="fill:#ffb27d;fill-rule:nonzero;"/><path d="M717.489,475.319c0,0 -12.66,19.989 -23.962,24.719c-11.303,4.74 -16.855,2.33 -16.855,2.33c0,0 5.142,-7.79 6.481,-18.26c0.395,-3.09 2.405,-5.73 5.294,-6.89c8.11,-3.25 23.798,-8.37 29.042,-1.899Z" style="fill:#233862;fill-rule:nonzero;"/><path d="M706.368,477.258c0,0 7.421,3.8 10.477,7.37c2.949,3.44 6.355,12.77 6.112,16.97c0,0 3.66,-20.1 -3.964,-27c-8.085,-7.33 -12.625,2.66 -12.625,2.66Z" style="fill:#233862;fill-rule:nonzero;"/><path d="M735.044,586.748c-0.847,56.66 20.039,40.8 13.84,46.18c-1.494,1.29 -7.606,10.94 -30.661,12.09c-17.393,0.86 -48.752,-7.35 -49.914,-10.56c-4.008,-11.11 -1.178,-14.56 -4.522,-31.57c-0.349,-1.81 -0.78,-3.77 -1.286,-5.9c-2.788,-11.69 -5.502,-15.66 4.389,-34.43c8.971,-17.01 19.519,-30.82 20.358,-30.32c23.666,14.05 24.476,2.27 24.476,2.27c0,0 23.735,24.59 23.32,52.24Z" style="fill:#fff;fill-rule:nonzero;"/><path d="M711.724,534.508c0,0 24.222,4.11 27.082,14.59c2.859,10.49 30.811,89.83 30.811,89.83c0,0 -29.81,0.82 -35.528,-4.9c-5.719,-5.72 -13.595,-69.36 -13.595,-69.36l-8.77,-30.16Z" style="fill:#afcdfb;fill-rule:nonzero;"/><path d="M718.223,630.798c0,0 3.592,4.64 4.77,5.19c1.177,0.55 1.938,0.42 1.938,0.42l-2.421,-4.36l-4.287,-1.25Z" style="fill:#ffb27d;fill-rule:nonzero;"/><path d="M717.393,626.028l10.444,5.07c0,0 -0.445,0.73 -1.73,0.67c-1.286,-0.06 -4.53,-1.24 -4.53,-1.24l-4.184,-4.5Z" style="fill:#ffb27d;fill-rule:nonzero;"/><path d="M711.941,530.808l-0.217,3.7c2.753,9.47 7.409,38.72 13.207,61.35l4.053,-32.41l-3.334,-2.72l1.251,-4.58l-10.922,-20.73l-4.038,-4.61Z" style="fill:#95b3ef;fill-rule:nonzero;"/><path d="M698.534,685.638c-37.359,12.5 -53.768,4.84 -53.768,4.84l6.104,-36.12l3.333,-19.69l7.148,-42.28l12.207,-40.2l10.681,-6.47l9.319,46.67l2.453,45.89l0.117,2.21l2.406,45.15Z" style="fill:#afcdfb;fill-rule:nonzero;"/><path d="M666.673,596.778c-0.625,0.99 -0.653,20.19 17.441,24.89c18.094,4.7 -26.497,9.27 -26.497,9.27c0,0 -14.378,-11.03 -14.17,-13.74c0.208,-2.71 23.226,-20.42 23.226,-20.42Z" style="fill:#95b3ef;fill-rule:nonzero;"/><path d="M696.128,640.488c-7.676,3.9 -26.702,12.65 -45.258,13.87l3.333,-19.69l41.808,3.61l0.117,2.21Z" style="fill:#95b3ef;fill-rule:nonzero;"/><path d="M697.484,628.328c0,0 17.143,-3.82 19.909,-2.3c2.766,1.52 9.527,7.06 10.373,8.99c0.847,1.93 -6.158,-1.46 -8.436,-2.07c-1.476,-0.4 -5.36,0.95 -7.282,1.59c-8.091,2.7 -13.049,1.31 -13.049,1.31l-1.515,-7.52Z" style="fill:#ffb27d;fill-rule:nonzero;"/><path d="M687.248,532.238c0,0 -24.263,1.42 -32.232,12.53c-11.216,15.65 -33.468,82.32 -20.715,91.21c14.361,10.02 65.362,2.62 65.362,2.62c0,0 1.698,-7.93 -0.664,-11.77c-2.362,-3.83 -40.736,-10.03 -42.507,-11.81c-1.771,-1.77 22.139,-34.53 22.139,-39.84c0,-5.32 8.617,-42.94 8.617,-42.94Z" style="fill:#afcdfb;fill-rule:nonzero;"/><path d="M688.645,529.118l4.916,63.27l-11.252,-24.22l1.928,-4.31c0,0 -4.116,-7.09 -4.116,-7.92c0,-0.84 1.171,-23.02 1.171,-23.02l7.353,-3.8Z" style="fill:#95b3ef;fill-rule:nonzero;"/><rect x="716.899" y="634.028" width="32.298" height="2.09" style="fill:#233862;fill-rule:nonzero;"/><path d="M849.833,619.898l-98.352,0l17.87,-66.09l98.352,0l-17.87,66.09Z" style="fill:#142d5e;fill-rule:nonzero;"/><path d="M852.939,619.898l-98.351,0l17.869,-66.09l98.352,0l-17.87,66.09Z" style="fill:#2b478b;fill-rule:nonzero;"/><path d="M811.046,635.938l-20.622,0.18l14.276,-43.51l20.622,-0.19l-14.276,43.52Z" style="fill:#142d5e;fill-rule:nonzero;"/><rect x="777.688" y="634.048" width="45.039" height="2.07" style="fill:#142d5e;fill-rule:nonzero;"/><rect x="385.583" y="649.588" width="555.874" height="237.6" style="fill:#ffa561;fill-rule:nonzero;"/><rect x="367.709" y="636.148" width="591.618" height="19.43" style="fill:#fff;fill-rule:nonzero;"/><rect x="385.583" y="806.748" width="555.874" height="38.37" style="fill:#fff;fill-rule:nonzero;"/><path d="M1285.85,648.998c-0.77,0 -1.5,-0.44 -1.85,-1.18l-6.85,-14.71l-22.74,0c-1.13,0 -2.04,-0.92 -2.04,-2.04c0,-1.13 0.91,-2.04 2.04,-2.04l24.03,0c0.8,0 1.52,0.46 1.85,1.18l7.4,15.89c0.48,1.02 0.04,2.23 -0.98,2.71c-0.28,0.13 -0.57,0.19 -0.86,0.19Z" style="fill:#233862;fill-rule:nonzero;"/><path d="M1271.26,634.138l-17.47,0c-1.69,0 -3.08,-1.38 -3.08,-3.08c0,-1.69 1.39,-3.08 3.08,-3.08l17.47,0c1.69,0 3.08,1.39 3.08,3.08c0,1.7 -1.39,3.08 -3.08,3.08Z" style="fill:#233862;fill-rule:nonzero;"/><path d="M1253.48,624.678c0.57,0.43 10.71,-0.86 13.97,1.2c3.26,2.06 6.4,7.77 4.93,9.81c-1.46,2.04 -8.4,-4.08 -10.43,-3.98c-2.04,0.11 -7.9,-1.7 -7.9,-1.7l-0.57,-5.33Z" style="fill:#ffb27d;fill-rule:nonzero;"/><path d="M1256.58,623.868c0,0 1.06,1.84 1.04,3.45c-0.03,2.7 -1.04,3.99 -1.04,3.99c0,0 -12.26,0.98 -25.46,-0.92c-7.34,-1.06 -14.97,-3.01 -20.94,-6.52c-8.11,-4.77 -15.64,-21.75 -21.25,-37.95c-5.94,-17.18 -9.72,-33.5 -9.72,-33.5c2.76,-6.68 10.07,-10.71 16.22,-9.72c3.37,0.54 11.27,3.14 13.06,5.49c2.74,3.6 10.48,36.49 16.56,52.05c1.34,3.42 31.53,23.63 31.53,23.63Z" style="fill:#f9ddbf;fill-rule:nonzero;"/><path d="M1231.12,630.388c-7.34,-1.06 -14.97,-3.01 -20.94,-6.52c-8.11,-4.77 -15.64,-21.75 -21.25,-37.95c-0.09,-11.7 -0.09,-21.37 -0.09,-21.37l13.28,5.51c0.41,0.81 4.69,40.99 14.28,49.15c8.14,6.93 13.33,10.31 14.72,11.18Z" style="fill:#eac3a2;fill-rule:nonzero;"/><path d="M1401.64,863.938c-1.02,-0.29 -2.09,-0.45 -3.19,-0.45c-1.11,0 -2.18,0.16 -3.2,0.45l0,-132.45l6.39,0l0,132.45Z" style="fill:#b9c7de;fill-rule:nonzero;"/><path d="M1398.45,886.138c-6.26,0 -11.33,-5.07 -11.33,-11.33c0,-5.14 3.43,-9.49 8.13,-10.87l0,0.97l6.39,0l0,-0.97c4.7,1.38 8.14,5.73 8.14,10.87c0,6.26 -5.08,11.33 -11.33,11.33Zm0,-15.22c-2.15,0 -3.89,1.75 -3.89,3.89c0,2.15 1.74,3.89 3.89,3.89c2.14,0 3.89,-1.74 3.89,-3.89c0,-2.14 -1.75,-3.89 -3.89,-3.89Z" style="fill:#b9c7de;fill-rule:nonzero;"/><path d="M1401.64,864.908l-6.39,0l0,-0.97c1.02,-0.29 2.09,-0.45 3.2,-0.45c1.1,0 2.17,0.16 3.19,0.45l0,0.97Z" style="fill:#9baac5;fill-rule:nonzero;"/><path d="M1398.45,878.698c-2.15,0 -3.89,-1.74 -3.89,-3.89c0,-2.14 1.74,-3.89 3.89,-3.89c2.14,0 3.89,1.75 3.89,3.89c0,2.15 -1.75,3.89 -3.89,3.89Z" style="fill:#e4dad8;fill-rule:nonzero;"/><path d="M1237.23,648.998c-0.76,0 -1.5,-0.44 -1.85,-1.18l-6.85,-14.71l-22.74,0c-1.12,0 -2.04,-0.92 -2.04,-2.04c0,-1.13 0.92,-2.04 2.04,-2.04l24.04,0c0.79,0 1.51,0.46 1.84,1.18l7.41,15.89c0.47,1.02 0.03,2.23 -0.99,2.71c-0.28,0.13 -0.57,0.19 -0.86,0.19Z" style="fill:#233862;fill-rule:nonzero;"/><path d="M1325.87,879.038c-0.26,-0.06 -0.51,-0.12 -0.76,-0.19c1.16,-5.34 5.47,-21.2 10.27,-38.5c0.26,0.08 0.53,0.15 0.8,0.19c-4.95,17.83 -9.23,33.59 -10.31,38.5Zm13.94,-51.52c-0.26,-0.09 -0.52,-0.18 -0.78,-0.25c4.8,-17.15 9.43,-33.49 11.38,-40.34c0.26,0.08 0.52,0.15 0.78,0.23c-2.88,10.15 -7.16,25.25 -11.38,40.36Z" style="fill:#bbcdea;fill-rule:nonzero;"/><path d="M1383.26,845.598c-9.95,-2.83 -24.51,-6.94 -39.16,-11.05c0.02,-0.23 0.03,-0.46 0.03,-0.7l0,-0.14c16.64,4.66 32.39,9.13 39.34,11.1c-0.07,0.27 -0.14,0.53 -0.21,0.79Zm-52.06,-14.64c-18.7,-5.2 -35.32,-9.72 -39.86,-10.67c0.06,-0.25 0.14,-0.5 0.21,-0.75c5.08,1.06 21.91,5.64 40.06,10.68c-0.15,0.23 -0.29,0.48 -0.41,0.74Z" style="fill:#bbcdea;fill-rule:nonzero;"/><path d="M1374.89,862.098c-7.99,-6.37 -19.7,-15.67 -31.56,-25.04c0.13,-0.25 0.25,-0.51 0.35,-0.77c13.5,10.66 26.19,20.77 31.71,25.17c-0.16,0.21 -0.33,0.43 -0.5,0.64Zm-42.06,-33.32c-15.21,-11.98 -28.85,-22.6 -32.95,-25.45c0.17,-0.2 0.33,-0.41 0.49,-0.61c4.53,3.15 18.36,13.91 33.13,25.54c-0.23,0.16 -0.46,0.33 -0.67,0.52Z" style="fill:#bbcdea;fill-rule:nonzero;"/><path d="M1290.18,839.708c-0.04,-0.27 -0.07,-0.54 -0.11,-0.81c5.3,-0.74 22.19,-3.08 40.5,-5.56c-0.01,0.17 -0.02,0.34 -0.02,0.51c0,0.11 0.01,0.21 0.01,0.32c-15.46,2.09 -30.58,4.17 -40.38,5.54Zm53.79,-7.35c-0.06,-0.27 -0.14,-0.53 -0.23,-0.79c17.3,-2.31 33.73,-4.42 40.85,-5.1c0.04,0.26 0.07,0.52 0.1,0.78c-6.79,0.67 -23,2.75 -40.72,5.11Z" style="fill:#bbcdea;fill-rule:nonzero;"/><path d="M1355.15,876.988c-3.73,-9.44 -9.19,-23.18 -14.75,-37.07c0.25,-0.13 0.49,-0.27 0.71,-0.42c6.32,15.78 12.21,30.63 14.8,37.18c-0.25,0.1 -0.5,0.21 -0.76,0.31Zm-19.79,-49.63c-7.31,-18.16 -13.93,-34.35 -16.02,-38.72c0.25,-0.1 0.49,-0.2 0.73,-0.29c2.32,4.86 9.01,21.22 16.09,38.82c-0.27,0.04 -0.54,0.11 -0.8,0.19Z" style="fill:#bbcdea;fill-rule:nonzero;"/><path d="M1300.16,862.558c-0.17,-0.21 -0.34,-0.42 -0.51,-0.64c5.15,-3.99 18.02,-13.96 31.86,-24.6c0.14,0.24 0.29,0.47 0.46,0.68c-12.04,9.26 -23.87,18.4 -31.81,24.56Zm42.58,-32.83c-0.17,-0.21 -0.35,-0.42 -0.54,-0.62c14.48,-11.08 28.11,-21.41 33.23,-24.96c0.16,0.21 0.32,0.42 0.47,0.63c-4.79,3.33 -18.27,13.55 -33.16,24.95Z" style="fill:#bbcdea;fill-rule:nonzero;"/><path d="M1337.34,840.638c-0.39,0 -0.78,-0.03 -1.16,-0.1c-0.27,-0.04 -0.54,-0.11 -0.8,-0.19c-1.37,-0.41 -2.56,-1.24 -3.41,-2.35c-0.17,-0.21 -0.32,-0.44 -0.46,-0.68c-0.56,-0.93 -0.9,-2 -0.95,-3.15c0,-0.11 -0.01,-0.21 -0.01,-0.32c0,-0.17 0.01,-0.34 0.02,-0.51c0.07,-0.85 0.29,-1.65 0.63,-2.38c0.12,-0.26 0.26,-0.51 0.41,-0.74c0.34,-0.54 0.75,-1.02 1.22,-1.44c0.21,-0.19 0.44,-0.36 0.67,-0.52c0.56,-0.39 1.19,-0.7 1.86,-0.9c0.26,-0.08 0.53,-0.15 0.8,-0.19c0.39,-0.07 0.78,-0.11 1.18,-0.11c0.58,0 1.15,0.08 1.69,0.21c0.26,0.07 0.52,0.16 0.78,0.25c0.91,0.36 1.72,0.9 2.39,1.59c0.19,0.2 0.37,0.41 0.54,0.62c0.42,0.55 0.76,1.17 1,1.84c0.09,0.26 0.17,0.52 0.23,0.79c0.1,0.44 0.15,0.89 0.16,1.35l0,0.14c0,0.24 -0.01,0.47 -0.03,0.7c-0.06,0.61 -0.21,1.19 -0.42,1.74c-0.1,0.26 -0.22,0.52 -0.35,0.77c-0.53,0.98 -1.29,1.82 -2.22,2.44c-0.22,0.15 -0.46,0.29 -0.71,0.42c-0.92,0.46 -1.96,0.72 -3.06,0.72Z" style="fill:#e4dad8;fill-rule:nonzero;"/><path d="M1337.34,886.138c-29.43,0 -53.37,-23.94 -53.37,-53.36c0,-29.43 23.94,-53.37 53.37,-53.37c29.43,0 53.37,23.94 53.37,53.37c0,29.42 -23.94,53.36 -53.37,53.36Zm-11.47,-7.1c3.67,0.92 7.52,1.4 11.47,1.4c6.3,0 12.31,-1.23 17.81,-3.45c0.26,-0.1 0.51,-0.21 0.76,-0.31c7.5,-3.19 14.02,-8.24 18.98,-14.58c0.17,-0.21 0.34,-0.43 0.5,-0.64c3.54,-4.69 6.24,-10.05 7.87,-15.86c0.07,-0.26 0.14,-0.52 0.21,-0.79c1,-3.84 1.54,-7.88 1.54,-12.03c0,-1.87 -0.11,-3.72 -0.32,-5.53c-0.03,-0.26 -0.06,-0.52 -0.1,-0.78c-1.06,-8.03 -4.13,-15.43 -8.69,-21.69c-0.15,-0.21 -0.31,-0.42 -0.47,-0.63c-6.01,-7.98 -14.46,-14.01 -24.24,-16.99c-0.26,-0.08 -0.52,-0.15 -0.78,-0.23c-4.15,-1.19 -8.54,-1.82 -13.07,-1.82c-6.09,0 -11.91,1.15 -17.27,3.24c-0.24,0.09 -0.48,0.19 -0.73,0.29c-7.44,3.05 -13.96,7.93 -18.97,14.08c-0.16,0.2 -0.32,0.41 -0.49,0.61c-3.74,4.76 -6.61,10.24 -8.33,16.21c-0.07,0.25 -0.15,0.5 -0.21,0.75c-1.08,3.98 -1.66,8.17 -1.66,12.49c0,2.07 0.13,4.12 0.39,6.12c0.04,0.27 0.07,0.54 0.11,0.81c1.21,8.28 4.57,15.88 9.47,22.21c0.17,0.22 0.34,0.43 0.51,0.64c6.28,7.83 14.98,13.64 24.95,16.29c0.25,0.07 0.5,0.13 0.76,0.19Z" style="fill:#b9c7de;fill-rule:nonzero;"/><path d="M1222.64,634.138l-17.47,0c-1.69,0 -3.08,-1.38 -3.08,-3.08c0,-1.69 1.39,-3.08 3.08,-3.08l17.47,0c1.7,0 3.08,1.39 3.08,3.08c0,1.7 -1.38,3.08 -3.08,3.08Z" style="fill:#233862;fill-rule:nonzero;"/><path d="M1376.9,719.168c0,0 9.88,1.02 11.1,2.38c1.23,1.36 5.71,8.78 5.84,10.16c0.14,1.38 0.04,3.93 -0.98,3.52c-1.02,-0.41 -5.29,-7.2 -7.46,-7.3c-2.16,-0.1 -9.08,-3 -9.08,-3l0.58,-5.76Z" style="fill:#ed985f;fill-rule:nonzero;"/><path d="M1366.55,771.948l-91.93,0.95l-41.36,-129.28l85.04,-0.94l48.25,129.27Z" style="fill:#2b478b;fill-rule:nonzero;"/><path d="M1336.87,649.258c0,0 1.83,47.53 6.26,52.26c2.86,3.06 33.77,17.65 33.77,17.65l-0.31,5.83c0,0 -40.21,-5.7 -46.14,-12.86c-11.7,-14.16 -12.47,-52.76 -13.04,-56.86c-0.56,-4.1 11.19,-12.33 19.46,-6.02Z" style="fill:#ed985f;fill-rule:nonzero;"/><path d="M1427.38,850.358l-30.77,0c0,0 -1.15,-4.9 0.87,-8.24c1.78,-2.96 1.1,-4.64 -0.22,-7.09c1.39,0.57 3.19,1.09 5.18,0.98c1.53,-0.09 3.15,-0.78 4.57,-1.61c1.33,1.51 7,7.94 8.77,9.21c2.01,1.44 10.98,0.93 11.6,6.75Z" style="fill:#1a3670;fill-rule:nonzero;"/><path d="M1285.52,737.838c2.04,12.32 12.97,21.19 25.46,21.05c15.49,-0.19 38.12,-0.5 46.41,-0.81c17.58,-0.67 24.19,0.04 24.14,0.54c-0.79,7.39 -1.44,4.23 6.75,3.66c0,0 28.97,-0.82 20.3,-20.64c-8.67,-19.81 -90.96,-25.99 -98.24,-25.13c-6.18,0.73 -28,2.23 -24.82,21.33Z" style="fill:#ea8b49;fill-rule:nonzero;"/><path d="M1410.15,749.418c-0.37,14.01 -2.54,52.83 2.92,84.01c1.38,7.91 -9.97,8.15 -10.05,8.16c-2.15,0.26 -5.93,0.45 -7.19,-1.12c-8.76,-10.86 -21.11,-61.27 -17.75,-82.2c1.63,-10.21 11.81,-10.02 20.03,-13.79c5.06,-2.31 12.19,-0.62 12.04,4.94Z" style="fill:#ea8b49;fill-rule:nonzero;"/><rect x="1258.54" y="728.518" width="6.38" height="106.48" style="fill:#233862;fill-rule:nonzero;"/><path d="M1307.41,564.268c9.01,-2.48 18.68,-0.27 25.79,5.78c3.14,2.67 6.61,6.03 9.86,10.04c8.03,9.96 -5.62,21.06 -3.52,24.47c2.09,3.41 6.64,5.93 5.14,13.39c-1.49,7.45 -13.61,17.71 -17.71,18.38c-41.6,6.7 -61.08,-15.32 -47.81,-28.56c13.27,-13.24 6.53,-30.95 17.48,-38.61c3.38,-2.37 7.16,-3.9 10.77,-4.89Z" style="fill:#233862;fill-rule:nonzero;"/><path d="M1338.26,645.838c-3.32,2.6 -7.55,4.83 -12.93,6.4c-20.14,5.89 -28.96,-10.92 -32.58,-22.6c2.69,-1.75 5.29,-2.25 6.79,-2.52c1.47,-0.26 3.02,-0.47 4.3,-0.6c2.19,-1.89 5.19,-9.27 5.31,-20.48l0.97,0.2l16.35,3.48c0,0 -0.44,5.16 -0.53,10.02c-0.06,3.8 0.1,7.42 0.87,8.26c1.13,0.32 2.14,0.66 2.14,0.66c0.24,0.36 0.25,0.2 0.17,0.08c0.24,0.34 5.08,7.36 9.14,17.1Z" style="fill:#ffb27d;fill-rule:nonzero;"/><path d="M1326.47,609.728c0,0 -0.45,5.15 -0.53,10.01c-9.17,-0.39 -13.9,-8.83 -15.82,-13.49l16.35,3.48Z" style="fill:#ed985f;fill-rule:nonzero;"/><path d="M1329.47,614.368c0,0 -21.71,0.05 -21.53,-13.47c0.17,-13.52 -2.51,-22.62 11.36,-23.22c13.87,-0.6 16.49,4.59 17.53,9.12c1.04,4.52 -1.71,27.21 -7.36,27.57Z" style="fill:#ffb27d;fill-rule:nonzero;"/><path d="M1336.29,579.268c-3.3,-4.11 -5.84,-3.26 -7.28,-2.05c-11.77,-6.69 -19.55,2.84 -19.55,2.84c-1.59,9.68 -8.67,15.14 -8.67,15.14c0,0 4.01,2.84 13.08,0.28c11.59,-3.28 15.04,-13.69 15.5,-15.29c1.3,1.21 2.95,1.93 4.33,4.64c1.64,3.21 2.66,5.07 3,10.49c0,0 4.54,-9.88 -0.41,-16.05Z" style="fill:#233862;fill-rule:nonzero;"/><rect x="1360.14" y="849.888" width="77.16" height="6.25" style="fill:#233862;fill-rule:nonzero;"/><path d="M1276.06,737.838c2.05,12.32 12.98,21.19 25.47,21.05c15.49,-0.19 38.11,-0.5 46.41,-0.81c17.58,-0.67 24.19,0.04 24.13,0.54c-0.79,7.39 -1.44,4.23 6.76,3.66c0,0 28.96,-0.82 20.3,-20.64c-8.67,-19.81 -90.97,-25.99 -98.24,-25.13c-6.19,0.73 -28,2.23 -24.83,21.33Z" style="fill:#ffa561;fill-rule:nonzero;"/><path d="M1275.97,696.698c1.47,-10.09 -2.12,-48.29 5.86,-60.23c5.78,-8.63 13.78,-12.04 23.66,-12.2c3.17,1.8 15.29,8.61 20.03,7.4c0.05,-0.01 0.14,-0.04 0.27,-0.08c2.22,-0.69 2.99,-2.33 1.02,-3.59c0,0 8.09,1.75 10.61,4.6c2.41,2.74 2.3,8.62 3.07,15.56c0.19,1.71 0.22,3.44 0.43,5.16c0.95,7.8 -1.56,8.64 -10.15,31.14c-4.2,11 -2.24,19.78 0.57,25.63c2.51,5.25 0.75,11.54 -4.17,14.66c-16.96,10.74 -49.95,29.42 -51.11,13.09c-1.18,-16.57 -2.13,-27.2 -0.09,-41.14Z" style="fill:#f9ddbf;fill-rule:nonzero;"/><path d="M1304.76,647.788c0,0 8.15,55.31 13.58,60c3.51,3.03 38.39,8.64 38.39,8.64l0.58,5.38c0,0 -49.77,3.65 -52.62,-0.5c-11.49,-16.77 -19.54,-60.15 -20.64,-64.6c-1.11,-4.45 10.85,-14.89 20.71,-8.92Z" style="fill:#ffb27d;fill-rule:nonzero;"/><path d="M1417.92,849.948l-30.77,0c0,0 -1.15,-4.91 0.87,-8.25c1.79,-2.95 1.11,-4.64 -0.22,-7.08c1.4,0.57 3.2,1.09 5.18,0.97c1.54,-0.08 3.16,-0.78 4.58,-1.6c1.32,1.51 6.99,7.93 8.77,9.21c2.01,1.44 10.97,0.93 11.59,6.75Z" style="fill:#2b478b;fill-rule:nonzero;"/><path d="M1400.7,749.418c-0.37,14.01 -2.54,52.83 2.92,84.01c1.38,7.91 -9.97,8.15 -10.05,8.16c-2.16,0.26 -5.94,0.45 -7.2,-1.12c-8.75,-10.86 -21.1,-61.27 -17.75,-82.2c1.64,-10.21 11.82,-10.02 20.03,-13.79c5.06,-2.31 12.2,-0.62 12.05,4.94Z" style="fill:#ffa561;fill-rule:nonzero;"/><path d="M1333.07,606.388c0,0 -2.09,-0.69 -7.82,0.11c0,0 0.44,2.23 4.69,2.21c2.42,-0.02 3.13,-2.32 3.13,-2.32Z" style="fill:#fff;fill-rule:nonzero;"/><path d="M1312.5,664.378c0,0 -14.75,12.78 -31.9,8.42c0,0 -6.18,-41.28 15.29,-41.85c0,0 17.79,7.05 16.61,33.43Z" style="fill:#f9ddbf;fill-rule:nonzero;"/><rect x="1264.92" y="764.458" width="103.14" height="8.12" style="fill:#233862;fill-rule:nonzero;"/><path d="M1360.14,856.138l7.37,-4.26l-50.47,-87.42l-7.37,4.26l50.47,87.42Z" style="fill:#233862;fill-rule:nonzero;"/><path d="M1264.92,764.458c1.88,0 9.04,-6.75 20.28,-6.38c11.24,0.36 73.94,-0.02 73.94,-0.02c0,0 8.18,-0.86 8.95,6.4l-103.17,0Z" style="fill:#2d53a0;fill-rule:nonzero;"/><rect x="1359.14" y="731.498" width="6.38" height="133.41" style="fill:#233862;fill-rule:nonzero;"/><path d="M1356.73,716.428c0,0 11.04,0.64 12.26,1.99c1.22,1.36 5.7,8.79 5.84,10.17c0.14,1.38 0.03,3.92 -0.99,3.52c-1.01,-0.41 -5.24,-7.74 -7.4,-7.85c-2.17,-0.1 -9.13,-2.45 -9.13,-2.45l-0.58,-5.38Z" style="fill:#ffb27d;fill-rule:nonzero;"/><path d="M1254.53,735.268l120.32,0c0,-7.38 -5.99,-13.37 -13.37,-13.37l-98.98,0c-4.4,0 -7.97,3.57 -7.97,7.97l0,5.4Z" style="fill:#233862;fill-rule:nonzero;"/><path d="M1249.19,880.708c-0.47,-2.12 23.57,-86.64 26.32,-96.27l0.78,0.23c-7.37,25.86 -26.45,93.51 -26.3,95.89l-0.8,0.15Z" style="fill:#2d53a0;fill-rule:nonzero;"/><path d="M1214.41,819.308c2.13,-0.47 86.65,23.57 96.28,26.31l-0.23,0.78c-25.86,-7.36 -93.51,-26.45 -95.89,-26.29l-0.16,-0.8Z" style="fill:#2d53a0;fill-rule:nonzero;"/><path d="M1223.26,801.798c2.15,0.38 70.86,55.15 78.69,61.39l-0.51,0.64c-21.02,-16.77 -76.09,-60.46 -78.34,-61.24l0.16,-0.79Z" style="fill:#2d53a0;fill-rule:nonzero;"/><path d="M1312.65,826.268c-2.05,-0.76 -89.07,11.36 -98.99,12.74l0.11,0.81c26.64,-3.72 96.28,-13.26 98.61,-12.78l0.27,-0.77Z" style="fill:#2d53a0;fill-rule:nonzero;"/><path d="M1243.67,786.908c1.67,1.4 33.99,83.11 37.67,92.42l-0.76,0.3c-9.88,-25.02 -35.88,-90.32 -37.45,-92.11l0.54,-0.61Z" style="fill:#2d53a0;fill-rule:nonzero;"/><path d="M1301.9,802.848c-2.15,0.36 -71.58,54.2 -79.49,60.34l0.5,0.65c21.24,-16.49 76.88,-59.45 79.15,-60.19l-0.16,-0.8Z" style="fill:#2d53a0;fill-rule:nonzero;"/><path d="M1254.94,833.848c0,-3.75 3.04,-6.79 6.79,-6.79c3.75,0 6.79,3.04 6.79,6.79c0,3.75 -3.04,6.79 -6.79,6.79c-3.75,0 -6.79,-3.04 -6.79,-6.79Z" style="fill:#f99746;fill-rule:nonzero;"/><path d="M1214.06,832.778c0,26.28 21.39,47.66 47.67,47.66c26.28,0 47.66,-21.38 47.66,-47.66c0,-26.29 -21.38,-47.67 -47.66,-47.67c-26.28,0 -47.67,21.38 -47.67,47.67Zm-5.7,0c0,-29.43 23.94,-53.37 53.37,-53.37c29.43,0 53.37,23.94 53.37,53.37c0,29.42 -23.94,53.36 -53.37,53.36c-29.43,0 -53.37,-23.94 -53.37,-53.36Z" style="fill:#233862;fill-rule:nonzero;"/><path d="M1373.66,874.808c0,-6.25 -5.07,-11.32 -11.33,-11.32c-6.26,0 -11.33,5.07 -11.33,11.32c0,6.26 5.07,11.33 11.33,11.33c6.26,0 11.33,-5.07 11.33,-11.33Z" style="fill:#233862;fill-rule:nonzero;"/><path d="M1358.44,874.808c0,-2.14 1.74,-3.88 3.89,-3.88c2.15,0 3.89,1.74 3.89,3.88c0,2.15 -1.74,3.89 -3.89,3.89c-2.15,0 -3.89,-1.74 -3.89,-3.89Z" style="fill:#f99746;fill-rule:nonzero;"/><path d="M1147.14,559.758c-1.52,-2.95 33.32,-13.55 33.88,15.51c0,0 65.27,-1.6 34.1,-37.98c-10.79,-12.6 -9.68,-23.01 -9.35,-32.71c0.33,-9.69 -6.72,-37.87 -30.89,-35.029c0,0 -6.32,-2.581 -14.22,1.52c-17.96,9.309 -58.19,99.409 -13.52,88.689Z" style="fill:#163560;fill-rule:nonzero;"/><path d="M1102.98,853.108c0,0 -7.31,6.67 -5.89,11.41c1.43,4.75 8.03,7.91 8.92,13.71c0.9,5.79 4.46,8.96 7.67,8.96l15.31,0c0,0 2.37,-4.08 -3.34,-5.31c-5.71,-1.23 -7.86,-8.04 -7.51,-14.37c0.36,-6.32 -0.53,-14.75 -0.53,-14.75l-12.13,-2.82l-2.5,3.17Z" style="fill:#233862;fill-rule:nonzero;"/><path d="M1164.89,855.938c0,0 -2.62,28.62 0.59,30.2l41.45,0c0,0 -0.36,-5.17 -6.96,-6.22c-6.6,-1.06 -18.2,-4.92 -20.16,-13.53c-1.97,-8.6 -14.92,-10.45 -14.92,-10.45Z" style="fill:#233862;fill-rule:nonzero;"/><path d="M1135.6,653.058c8.46,-18.96 13.64,-24.41 12.65,-30.29c-0.74,-4.39 2.24,-81.69 2.24,-81.69c1,-0.31 3.01,-0.59 4.11,-0.84c3.47,-0.77 6.34,-3.2 7.54,-6.55c1.44,-4.03 2.58,-9.98 2.55,-17.44l1.09,0.21l18.21,3.61c0,0 -0.41,5.73 -0.42,11.13l0,0.13c-0.03,4.69 3.05,8.83 7.56,10.14c2.3,0.66 4.3,1.23 4.3,1.23c0,0 6.69,19.09 7.96,38.71c1.28,19.62 -12.16,28.14 0.11,67.34c12.52,40.04 -72.57,14.79 -67.9,4.31Z" style="fill:#ffb27d;fill-rule:nonzero;"/><path d="M1183.99,520.068c0,0 -0.41,5.73 -0.42,11.13c-10.2,-0.29 -15.59,-9.59 -17.79,-14.74l18.21,3.61Z" style="fill:#e8945b;fill-rule:nonzero;"/><path d="M1187.4,525.178c0,0 -24.12,0.4 -24.14,-14.62c-0.01,-15.03 -3.14,-25.09 12.26,-25.98c15.4,-0.89 18.39,4.84 19.62,9.85c1.23,5.01 -1.47,30.26 -7.74,30.75Z" style="fill:#ffb27d;fill-rule:nonzero;"/><path d="M1186.5,484.208c0,0 -6.6,17.63 -16.73,20.23c-10.14,2.61 -14.53,-0.11 -14.53,-0.11c0,0 7.77,-6.17 9.38,-16.95c0,0 16.9,-11.559 21.88,-3.17Z" style="fill:#163560;fill-rule:nonzero;"/><path d="M1184.87,485.638c0,0 4.89,1.83 6.91,5.4c1.97,3.5 3.65,8.12 3.26,13.79c0,0 4.97,-11.97 -0.62,-18.75c-5.93,-7.19 -9.55,-0.44 -9.55,-0.44Z" style="fill:#163560;fill-rule:nonzero;"/><path d="M1182.15,515.858c0,0 1.66,2.19 4.99,2.03c2.68,-0.12 3.72,-2.45 3.72,-2.45c0,0 -4.93,-1.18 -8.71,0.42Z" style="fill:#ebf3fa;fill-rule:nonzero;"/><path d="M1199.97,619.248l-23.93,7.15l-7.58,-1.86l-21.58,-5.29c0,0 -2.79,-0.93 -5.26,-6.64c-0.47,-1.07 -1.32,-4.37 -2.2,-8.25c-0.97,-4.32 -1.98,-9.38 -2.55,-12.96c-0.84,-5.26 -2.52,-11.81 -3.98,-18.87c-1.07,-5.17 -2.02,-10.6 -2.45,-16.01c-0.58,-7.3 4.75,-13.75 12.04,-14.56l8.01,-0.89c25.42,20.74 44.94,1.63 44.94,1.63c0,0 6.69,11.89 11.06,29.01c4.38,17.12 -6.52,47.54 -6.52,47.54Z" style="fill:#f9ddbf;fill-rule:nonzero;"/><path d="M1198.45,623.868c0,0 11.85,36.88 12.61,49.43c0.76,12.56 -22.65,178.38 -23.59,184.16c-0.89,5.46 -7.66,8.93 -7.66,8.93c0,0 -3.12,1.84 -7.56,0.58c-6.17,-1.74 -8.12,-3.82 -8.12,-3.82c0,0 -9.22,-118.26 -3.52,-160.51c5.71,-42.24 5.78,-78.77 5.78,-78.77l32.06,0Z" style="fill:#ea8b49;fill-rule:nonzero;"/><path d="M1148.25,622.768c0,0 -18.08,24.25 -19.76,40.64c-1.69,16.39 -2.64,73.97 -6.23,89.95c-3.59,15.98 -16.78,46.74 -16.78,96.58c0,0 1.37,2.86 5.6,4.38c1.36,0.49 3.17,0.96 4.93,1.37c3.49,0.8 7.07,-0.91 8.67,-4.12c8.91,-17.95 37.32,-75.85 38.77,-87.87c1.03,-8.51 10,-64.8 29.56,-97.84c4.7,-7.93 -2.88,-39.47 -2.88,-39.47l-41.88,-3.62Z" style="fill:#ffa561;fill-rule:nonzero;"/><path d="M1182.69,516.258c0,0 0.41,1.77 4.82,1.5c0,0 3.69,-0.23 3.58,-2.17c0,0 -3.58,-1.39 -8.4,0.67Z" style="fill:#fff;fill-rule:nonzero;"/><path d="M1200.34,618.168c0,0 -4.76,3.76 -14.21,3.96c-11.28,0.22 -39.25,-2.88 -39.25,-2.88c0,0 -1.24,3.47 -1.19,7.14c0,0 34.16,8.61 53.95,1.25c0,0 2.55,-4.8 0.7,-9.47Z" style="fill:#233862;fill-rule:nonzero;"/><path d="M1185.4,626.018c0,2.28 1.54,4.12 3.44,4.12c1.9,0 3.45,-1.84 3.45,-4.12c0,-2.27 -1.55,-4.12 -3.45,-4.12c-1.9,0 -3.44,1.85 -3.44,4.12Zm-1.71,0c0,-3.21 2.31,-5.83 5.15,-5.83c2.84,0 5.15,2.62 5.15,5.83c0,3.22 -2.31,5.83 -5.15,5.83c-2.84,0 -5.15,-2.61 -5.15,-5.83Z" style="fill:#fff;fill-rule:nonzero;"/><path d="M1159.74,618.168c-9.23,-4.72 -15.76,-9.38 -20.32,-13.81c-0.97,-4.32 -1.98,-9.38 -2.55,-12.96c-0.84,-5.26 -3.75,-18.28 -5.21,-25.34l38.43,55.36c0,0 1.73,2.93 -10.35,-3.25Z" style="fill:#eac3a2;fill-rule:nonzero;"/><path d="M1173.35,581.288c0,0 17.09,27.13 22.04,32c4.95,4.88 -20.21,-3.87 -20.21,-3.87l-1.83,-28.13Z" style="fill:#eac3a2;fill-rule:nonzero;"/><path d="M1212.22,624.818c0.56,0.43 10.7,-0.86 13.97,1.2c3.26,2.06 6.39,7.77 4.93,9.81c-1.47,2.04 -8.4,-4.08 -10.44,-3.98c-2.04,0.11 -7.9,-1.71 -7.9,-1.71l-0.56,-5.32Z" style="fill:#ffb27d;fill-rule:nonzero;"/><path d="M1131.66,566.058c0,0 18.02,47.98 34.73,57.81c16.71,9.82 46.39,7.44 46.39,7.44c0,0 0.87,-1.31 1.1,-4.11c0.12,-1.39 -1.1,-3.33 -1.1,-3.33c0,0 -30.18,-20.21 -31.52,-23.63c-6.08,-15.56 -14.89,-35.48 -18.56,-38.14c-3.67,-2.65 -26.91,-6.03 -31.04,3.96Z" style="fill:#f9ddbf;fill-rule:nonzero;"/><path d="M2378.31,558.838c0,0 4.65,-5.65 7.15,-6.44c2.5,-0.79 7.34,-4.54 7.97,-2.99c0.64,1.54 -3.25,3.92 -3.04,5.69c0.2,1.76 12.35,4.6 12.27,6.46c-0.07,1.87 -2.86,6.38 -7.49,5.87c-4.63,-0.52 -16.38,-3.31 -18.79,-2.11c-2.42,1.21 1.93,-6.48 1.93,-6.48Z" style="fill:#ffb27d;fill-rule:nonzero;"/><path d="M2253.04,531.378c6.86,9.21 14.89,16.49 23.14,22.23c26.22,18.24 54.67,20.96 54.67,20.96c6.81,-2.18 27.75,-4.46 40.13,-6.46c5.4,-0.86 9.16,-1.68 9.42,-2.4l-0.31,-10.78c0,0 -45.43,-2.4 -52.95,-5.89c-11.86,-10.22 -22.33,-23.49 -29.16,-33.85c-5.77,-8.76 -12.22,-15.22 -22.86,-19.02c-15.39,-5.48 -43.38,6.61 -22.08,35.21Z" style="fill:#f9ddbf;fill-rule:nonzero;"/><path d="M2273.86,546.828l2.32,6.78c26.22,18.24 54.67,20.96 54.67,20.96c5.47,0 27.75,-4.46 40.13,-6.46c-0.49,0.04 -33.69,2.64 -41.03,1.88c-7.4,-0.76 -41.81,-30.59 -41.81,-30.59l-14.28,7.43Z" style="fill:#eac3a2;fill-rule:nonzero;"/><path d="M2303.51,888.408l-50.19,0c-3.6,-2.44 0.97,-26.28 0.97,-26.28c0,0 13.7,-5.2 16.06,5.37c2.38,10.56 17.45,13.92 25.43,15.21c5.46,0.89 7.19,3.89 7.73,5.7Z" style="fill:#233862;fill-rule:nonzero;"/><path d="M2229.07,888.408l-50.2,0c-3.59,-2.44 0.97,-26.28 0.97,-26.28c0,0 13.7,-5.2 16.07,5.37c2.37,10.56 17.45,13.92 25.43,15.21c5.46,0.89 7.18,3.89 7.73,5.7Z" style="fill:#233862;fill-rule:nonzero;"/><path d="M2290.01,645.158c0,0 -2.26,28.15 -4.91,61.98c-3.6,45.97 -13.32,159.93 -13.32,159.93c0,0 -6.38,5.43 -20.49,2.46c0,0 -12.02,-39.31 -15.61,-84.19c-0.06,-0.73 -0.11,-1.47 -0.17,-2.21c-3.34,-45.68 -8.54,-141.87 -8.54,-141.87l63.04,3.9Z" style="fill:#2b478b;fill-rule:nonzero;"/><path d="M2290.78,635.428c0,0 -3.03,37.88 -5.68,71.71l-49.42,78.2c-0.06,-0.73 -0.11,-1.47 -0.17,-2.21c-3.34,-45.68 -8.54,-141.87 -8.54,-141.87l63.81,-5.83Z" style="fill:#233862;fill-rule:nonzero;"/><path d="M2276.37,635.428c0,0 -35.84,89.23 -47.3,123.05c-8.16,24.09 -31.18,108.6 -31.18,108.6c0,0 -10.01,3.05 -18.43,-2.84c0,0 -8.56,-86.34 8.74,-110.69c9.18,-12.92 2.28,-134.28 39.49,-135.31c37.22,-1.04 48.68,17.19 48.68,17.19Z" style="fill:#2b478b;fill-rule:nonzero;"/><path d="M2260.36,503.898c-5.47,2.88 -10.81,3.06 -15.44,2.08c-4.24,-0.89 -7.87,-2.76 -10.46,-4.42c-2.66,-1.7 -4.22,-3.17 -4.22,-3.17c0,0 0.18,-0.27 0.49,-0.8c1.62,-2.76 6.52,-12.7 4.34,-28.68c-0.03,-0.21 1.55,0.09 3.94,0.651c7.12,1.689 21.41,5.74 22.05,5.919l0.02,0c0,0 0.18,3.36 0.77,9.39c0.05,0.53 0.1,1.08 0.16,1.66c0.07,0.7 0.14,1.45 0.23,2.22c0.66,6.26 -1.88,15.15 -1.88,15.15Z" style="fill:#ffb27d;fill-rule:nonzero;"/><path d="M2261.85,484.868c-10.62,2.43 -26.47,-13.25 -26.47,-13.25c1.16,-0.86 2.38,-1.54 3.63,-2.059c7.12,1.689 21.41,5.74 22.05,5.919l0.02,0c0,0 0.18,3.36 0.77,9.39Z" style="fill:#ed975d;fill-rule:nonzero;"/><path d="M2265.45,474.638c0,0 -4.36,1.56 -9.93,2.31c-8.14,1.101 -18.84,0.45 -22.2,-9.399c-5.67,-16.571 -12.9,-26.511 3.76,-33.281c8.93,-3.627 14.63,-3.819 18.51,-2.44c3.37,1.2 5.35,3.58 6.86,5.94c3.24,5.07 9.75,33.96 3,36.87Z" style="fill:#ffb27d;fill-rule:nonzero;"/><path d="M2275.57,439.078c-9.65,6.94 -23,0.12 -27.15,1.96c-4.15,1.85 -4.89,8.8 -4.97,11c-0.07,2.22 -0.36,4.08 -5.99,2.76c-0.92,-0.22 -1.59,-0.16 -2.05,0.12c-2.33,1.381 0.65,8.1 1.55,9.55c0,0 1.3,4.81 -1.58,7.15c-0.34,0.28 -5.99,2.75 -19.6,-18.07c-2.14,-3.27 -4.18,-10.63 -0.87,-17.72c3.29,-7.094 17.08,-13.947 28.78,-17.579c4.38,-1.362 7.63,-1.312 10.17,-0.379c4.24,1.549 6.5,5.556 8.75,9.581c3.76,6.767 12.96,11.627 12.96,11.627Z" style="fill:#a9453d;fill-rule:nonzero;"/><path d="M2295.61,620.408c-0.77,10.22 -2.93,17.55 -7.67,17.55c0,0 -21.06,7.41 -46.23,7.61c-4.92,0.03 -11.88,-0.92 -17.66,-1.89c-5.9,-1 -10.58,-2.01 -10.58,-2.01c-5.06,-1.17 -10.64,-4.29 -9.89,-10.06c0.42,-3.27 0.72,-7.53 0.92,-12.47c0.55,-13.37 0.46,-31.79 0.53,-49.41c0.05,-10.83 0.16,-21.36 0.52,-30.24c0,0 -4.97,-34.88 0.55,-40.6c6.46,-6.69 25.44,-8.75 26.62,-8.49c0.36,-0.08 0.72,-0.17 1.08,-0.23c0,0 16.51,9 28.52,2.26c0,0 17.51,4 22.55,9.32c1.74,1.84 8.68,13.1 8.87,25.46c0.26,17.24 -0.41,36.83 -0.41,36.83c0.18,2.8 0.48,6.41 0.81,10.53c0.35,4.39 0.74,9.35 1.07,14.52c0.16,2.61 0.32,5.27 0.44,7.93c0.37,8.21 0.49,16.46 -0.04,23.39Z" style="fill:#f9ddbf;fill-rule:nonzero;"/><path d="M2232.8,490.418c0,0 17.89,18.44 30.68,14.66c0,0 1.7,-2.49 -4.06,-3.29c-5.76,-0.8 -11.97,-0.47 -26.62,-11.37Z" style="fill:#eac3a2;fill-rule:nonzero;"/><path d="M2265.58,463.929c0,0 0.35,2.149 -4.64,3.859c0,0 -4.19,1.44 -4.95,-0.76c0,0 3.32,-3.17 9.59,-3.099Z" style="fill:#fff;fill-rule:nonzero;"/><path d="M2221.47,555.248c0,0 0.03,49.88 -16.97,63.89c0.55,-13.37 0.46,-31.79 0.53,-49.41l16.44,-14.48Z" style="fill:#eac3a2;fill-rule:nonzero;"/><path d="M2169.19,648.638c0,0 -8.66,13.59 -9.14,18.79c-0.33,3.54 0.46,17.48 2.23,17.53c2.49,0.07 4.98,-8.61 5.95,-10.86c0.96,-2.25 2.09,-4.02 3.05,-4.02c0.97,0 -2.09,8.69 0,7.72c2.09,-0.96 5.63,-9 5.95,-10.93c0.33,-1.93 -1.88,-8.11 -0.81,-10.55c1.08,-2.43 -7.23,-7.68 -7.23,-7.68Z" style="fill:#ffb27d;fill-rule:nonzero;"/><path d="M2207.75,496.998c0,0 -11.7,5.53 -21.51,46.44c-7.4,30.84 -21.55,109.6 -21.55,109.6l11.97,4.92c0,0 43.85,-100.65 50.12,-114.81c6.27,-14.15 -19.03,-46.15 -19.03,-46.15Z" style="fill:#f9ddbf;fill-rule:nonzero;"/><path d="M2423.12,555.248c0,0 11.58,56.58 15.98,65.83c4.41,9.25 22.02,42.53 22.02,42.53l-5.02,0.83c0,0 -31.87,-30.14 -32.98,-33.67c-1.1,-3.54 -21.89,-47.6 -21.89,-47.6l21.89,-27.92Z" style="fill:#ffb27d;fill-rule:nonzero;"/><path d="M2400.81,468.888c0,0 -22.44,-26.97 -34.32,-9.719c0,0 -8.87,3.679 -12.08,18.77c-3.27,15.389 6.97,27.089 12.26,24.199c3.4,-1.86 5.97,4.08 5.97,4.08l28.17,-37.33Z" style="fill:#233862;fill-rule:nonzero;"/><path d="M2368.94,456.439c0,0 -3.02,-12.071 -20.75,-8.301c0,0 8.49,-1.07 10.81,2.2c0,0 -6.72,-3.08 -10.93,-0.5c-4.22,2.58 -4.91,11.25 -4.28,13.89c0.63,2.64 5.28,10.5 8.36,10.5c3.08,0 6.73,-2.7 6.73,-2.7l10.06,-15.089Z" style="fill:#233862;fill-rule:nonzero;"/><path d="M2342.41,645.338c8.81,-19.77 13.03,-25.36 13.18,-31.58c0.11,-4.92 -2.31,-10.23 -7.02,-23.24c-1.11,-3.06 -1.88,-6.22 -2.35,-9.4c-3.72,-25.09 10.78,-52.21 19.8,-54.06c2.51,-0.66 6.76,-9.72 6.71,-24.32l1.13,0.22l18.98,3.76c0,0 -0.43,5.98 -0.44,11.61c-0.01,4.69 0.27,9.13 1.33,9.69c1.37,0.12 2.17,0.21 2.17,0.21c0,0 15.83,21.98 17.17,42.43c1.33,20.44 -12.68,29.33 0.1,70.18c13.05,41.73 -75.63,15.42 -70.76,4.5Z" style="fill:#ffb27d;fill-rule:nonzero;"/><path d="M2392.84,506.718c0,0 -0.43,5.98 -0.44,11.61c-10.63,-0.3 -16.24,-9.99 -18.54,-15.37l18.98,3.76Z" style="fill:#e8945b;fill-rule:nonzero;"/><path d="M2371.9,500.898c0,0 -5.57,-8.8 -6.91,-16.32c-0.95,-5.37 1.78,-25.279 21.79,-22.409c0,0 5.81,0.569 11.27,4.26c4.34,2.929 10.61,9.269 3.6,26.639l-1.82,5.86l-27.93,1.97Z" style="fill:#233862;fill-rule:nonzero;"/><path d="M2396.39,512.048c0,0 -25.14,0.42 -25.15,-15.24c-0.02,-15.66 -3.28,-26.15 12.77,-27.08c16.05,-0.919 19.17,5.05 20.45,10.27c1.28,5.23 -1.53,31.54 -8.07,32.05Z" style="fill:#ffb27d;fill-rule:nonzero;"/><path d="M2395.46,469.348c0,0 -6.88,18.37 -17.44,21.09c-10.57,2.71 -15.15,-0.12 -15.15,-0.12c0,0 8.11,-6.43 9.79,-17.67c0,0 17.61,-12.04 22.8,-3.3Z" style="fill:#233862;fill-rule:nonzero;"/><path d="M2393.75,470.838c0,0 5.14,4.101 6.4,8.091c1.25,3.989 1.81,12.199 4.21,11.919c0,0 5.18,-12.49 -0.65,-19.549c-6.17,-7.49 -9.96,-0.461 -9.96,-0.461Z" style="fill:#233862;fill-rule:nonzero;"/><path d="M2364.67,835.018c6.32,25.16 15.84,44.44 15.84,44.44l8.29,-0.57c0,0 -4.07,-19.34 -3.83,-45.47c0.16,-18.26 2.42,-39.85 9.64,-60.46c24.8,-70.84 20.79,-122.39 20.79,-122.39l-46.64,5.46l-2.17,0.25c-0.2,21.42 -0.75,50.5 -1.23,73.24c-0.43,20.46 -0.81,35.78 -0.81,35.78c-8.96,19.31 -5.71,46.57 0.12,69.72Z" style="fill:#163560;fill-rule:nonzero;"/><path d="M2309.72,666.328l7.55,2.27c0,0 24.89,-41.31 27.15,-52.05c0.74,-3.5 2.55,-10.5 4.66,-18.35c4.37,-16.24 10.01,-36.12 10.01,-36.12l1.86,-8.05l6.34,-27.44c0,0 -12.13,1.24 -19.23,4.21c-2.35,0.98 -4.14,2.15 -4.77,3.53c-5.21,11.46 -10.42,40.39 -14.08,61.03c-2.04,11.5 -3.59,20.43 -4.4,22.32c-2.27,5.28 -9.18,34.32 -15.09,48.65Z" style="fill:#ffb27d;fill-rule:nonzero;"/><path d="M2327.9,808.468c-2.28,15.31 -7.96,57.64 -5.75,64.72l9.05,-1.53c0,0 16.63,-38.24 20.41,-48.73c7.77,-21.59 16.76,-34.72 19.82,-44.85c9.58,-31.67 21.47,-134.99 21.47,-134.99l-47.29,-2.34c-4.75,7.99 -6.83,21.11 -7.32,36.02c-1.24,37.63 3.78,81.15 5.1,88.25c-3.86,6.35 -11.21,14.67 -15.49,43.45Z" style="fill:#1c468a;fill-rule:nonzero;"/><path d="M2394.71,471.458c0,0 -4.9,19.24 -18.23,25.4c0,0 13.33,-11.82 14.46,-24.52c1.13,-12.7 3.77,-0.88 3.77,-0.88Z" style="fill:#233862;fill-rule:nonzero;"/><path d="M2336.48,659.608c-0.08,1.59 0.01,2.87 0.3,3.78c1,3.16 4.46,4.61 12.81,3.74c5.11,-0.53 7.38,-9.09 8.4,-16.39c3.07,10.45 7.36,16.31 12.91,17.54c8.1,1.8 48.95,6.77 51.62,-12.65c2.95,-21.36 -5.86,-59.18 -6.35,-79.57c1.2,-7.23 1.62,-13.51 1.49,-18.9c-0.35,-14.52 -4.61,-22.67 -7.89,-25.94c-0.93,-0.72 -1.85,-1.16 -5.58,-1.8c-1.91,-0.33 -4.55,-0.7 -8.29,-1.19l-1.49,-0.12c0.69,1.24 9.95,15.25 9.23,18.85c-0.76,3.77 -33.57,0.38 -35.84,-1.7c-2.26,-2.07 -5.84,-17.96 -5.84,-17.96c0,0 -11.62,1.27 -17.3,5.41l0.06,0.07c-0.69,0.49 -1.21,1.01 -1.5,1.57c-6.06,11.55 -12.12,40.69 -16.38,61.47c10.32,5.69 19.34,3.99 22.14,3.24c-3.66,23.94 -11.95,49.64 -12.5,60.55Z" style="fill:#f99746;fill-rule:nonzero;"/><path d="M2375.74,886.408l5.29,0c1.77,-0.28 3.08,-0.79 4.9,-1.03c2.76,-0.36 4.03,0.77 4.28,1.03l0.05,0.06l22.48,0c0.57,-0.81 0.02,-2.68 -0.51,-4.06c-0.36,-0.94 -1.14,-1.64 -2.1,-1.92c-2.39,-0.69 -7.09,-1.31 -11.39,-5.2c-2.42,-2.19 -11.69,-8.05 -11.69,-8.05l-0.05,-0.01c-0.21,0 -1.17,0.3 -5.39,3.86c-2.18,1.84 -5.9,-2.59 -5.9,-2.59c0,0 -0.69,0.57 -1.22,1.65c-0.41,0.85 -0.72,2.01 -0.48,3.45c0.34,2.03 -0.74,5.79 -1.61,8.33c-0.52,1.55 -0.96,2.64 -0.96,2.64c0,0 -0.26,1.27 4.3,1.84Z" style="fill:#233862;fill-rule:nonzero;"/><path d="M2374.49,870.148c1.27,0.89 3.94,2.64 5.7,2.87c2.39,0.32 6.86,-5.78 6.86,-5.78l-0.05,-0.01c-0.21,0 -1.17,0.3 -5.39,3.86c-2.18,1.84 -5.9,-2.59 -5.9,-2.59c0,0 -0.69,0.57 -1.22,1.65Z" style="fill:#466aa5;fill-rule:nonzero;"/><path d="M2375.74,886.408l5.29,0c1.77,-0.28 3.08,-0.79 4.9,-1.03c2.76,-0.36 4.03,0.77 4.28,1.03l0.05,0.06l22.48,0c0.57,-0.81 0.02,-2.68 -0.51,-4.06c-0.68,-0.61 -0.87,2.64 -1.25,3.15c-0.38,0.52 -18.34,0.19 -19.38,-0.56c-1.03,-0.76 -4.15,-2.08 -8.48,-1.04c-3.78,0.9 -9.34,-1.41 -10.72,-2.03c-0.52,1.55 -0.96,2.64 -0.96,2.64c0,0 -0.26,1.27 4.3,1.84Z" style="fill:#466aa5;fill-rule:nonzero;"/><path d="M2321.44,886.408l5.29,0c1.77,-0.28 3.08,-0.79 4.9,-1.03c2.76,-0.36 4.03,0.77 4.28,1.03l0.05,0.06l22.48,0c0.57,-0.81 0.02,-2.68 -0.51,-4.06c-0.36,-0.94 -1.14,-1.64 -2.1,-1.92c-2.39,-0.69 -7.09,-1.31 -11.39,-5.2c-2.42,-2.19 -11.69,-8.05 -11.69,-8.05l-0.05,-0.01c-0.2,0 -1.17,0.3 -5.39,3.86c-2.18,1.84 -5.9,-2.59 -5.9,-2.59c0,0 -0.69,0.57 -1.21,1.65c-0.42,0.85 -0.73,2.01 -0.49,3.45c0.34,2.03 -0.74,5.79 -1.61,8.33c-0.52,1.55 -0.96,2.64 -0.96,2.64c0,0 -0.26,1.27 4.3,1.84Z" style="fill:#233862;fill-rule:nonzero;"/><path d="M2320.2,870.148c1.26,0.89 3.93,2.64 5.7,2.87c2.38,0.32 6.85,-5.78 6.85,-5.78l-0.05,-0.01c-0.2,0 -1.17,0.3 -5.39,3.86c-2.18,1.84 -5.9,-2.59 -5.9,-2.59c0,0 -0.69,0.57 -1.21,1.65Z" style="fill:#466aa5;fill-rule:nonzero;"/><path d="M2321.44,886.408l5.29,0c1.77,-0.28 3.08,-0.79 4.9,-1.03c2.76,-0.36 4.03,0.77 4.28,1.03l0.05,0.06l22.48,0c0.57,-0.81 0.02,-2.68 -0.51,-4.06c-0.68,-0.61 -0.87,2.64 -1.25,3.15c-0.38,0.52 -18.34,0.19 -19.38,-0.56c-1.03,-0.76 -4.14,-2.08 -8.48,-1.04c-3.78,0.9 -9.34,-1.41 -10.72,-2.03c-0.52,1.55 -0.96,2.64 -0.96,2.64c0,0 -0.26,1.27 4.3,1.84Z" style="fill:#466aa5;fill-rule:nonzero;"/><path d="M2409.29,530.878c0,0 14.76,7.56 19.98,39.39c0,0 -5.14,7.04 -12.37,9.12c-1.03,0.29 -2.11,0.49 -3.22,0.55c-8.88,0.47 -4.39,-49.06 -4.39,-49.06Z" style="fill:#f99746;fill-rule:nonzero;"/><path d="M2391.48,502.758c0,0 0.43,1.84 5.02,1.56c0,0 3.86,-0.24 3.74,-2.27c0,0 -3.74,-1.44 -8.76,0.71Z" style="fill:#fff;fill-rule:nonzero;"/><path d="M2457.06,657.768c0,0 8.9,4.37 10.47,7.48c0.97,1.92 -0.89,8.93 -2.77,9.78c-1.87,0.85 -1.86,-4.98 -3.5,-5.56c-1.63,-0.59 -6.46,-3.17 -7.06,-5.03c-1.78,-5.42 2.86,-6.67 2.86,-6.67Z" style="fill:#ffb27d;fill-rule:nonzero;"/><path d="M2504.27,885.438l2.59,-0.52l-44,-216.59l-2.59,0.53l44,216.58Z" style="fill:#163560;fill-rule:nonzero;"/><path d="M2466.46,690.458l-0.92,0.19c-1.25,0.26 -2.48,-0.55 -2.74,-1.8l-4,-19.47c-0.26,-1.26 0.55,-2.48 1.8,-2.74l0.92,-0.19c1.26,-0.26 2.49,0.55 2.74,1.8l4.01,19.47c0.26,1.26 -0.55,2.49 -1.81,2.74Z" style="fill:#163560;fill-rule:nonzero;"/><path d="M2454.47,664.968c0,0 4.08,5.49 4.42,6c0.34,0.51 0.91,-0.95 0.64,-1.96c-0.27,-1 -1.64,-4.94 -1.64,-4.94l-3.42,0.9Z" style="fill:#ffb27d;fill-rule:nonzero;"/><path d="M2311.07,662.868c0,0 -10.93,6.72 -12.52,9.63c-1.58,2.9 -5.28,13.59 -5.28,13.59c0,0 2.64,0.4 5.28,-4.22c2.64,-4.62 11.35,-4.23 14.26,-6.73c2.9,-2.51 6.28,-9.86 6.28,-9.86l-8.02,-2.41Z" style="fill:#ffb27d;fill-rule:nonzero;"/><path d="M2317.96,667.548c0,0 -1.72,8.12 -3.83,10.49c-2.11,2.38 -5.02,6.34 -6.21,5.28c-1.18,-1.06 1.32,-9.9 1.32,-9.9l8.72,-5.87Z" style="fill:#ffb27d;fill-rule:nonzero;"/><path d="M2300,673.418c-0.26,0.4 -9.37,10.08 -9.37,10.08c0,0 3.3,1.49 4.23,0c0.92,-1.5 5.14,-10.08 5.14,-10.08Z" style="fill:#ffb27d;fill-rule:nonzero;"/><path d="M2390.08,492.908l-3.6,0c-1.65,0 -2.98,-1.33 -2.98,-2.98l0,-1.11c0,-0.83 0.67,-1.5 1.49,-1.5l7.06,0c0.54,0 0.98,0.44 0.98,0.98l0,1.67c0,1.62 -1.32,2.94 -2.95,2.94Z" style="fill:#163560;fill-rule:nonzero;"/><path d="M2400.84,492.908l3.6,0c1.65,0 2.98,-1.33 2.98,-2.98l0,-1.11c0,-0.83 -0.67,-1.5 -1.49,-1.5l-7.06,0c-0.54,0 -0.98,0.44 -0.98,0.98l0,1.67c0,1.62 1.32,2.94 2.95,2.94Z" style="fill:#163560;fill-rule:nonzero;"/><path d="M2398.89,489.738c-0.03,-0.02 -3.1,-1.34 -6.04,0l-0.22,-0.49c3.16,-1.44 6.35,-0.06 6.48,0l-0.22,0.49Z" style="fill:#163560;fill-rule:nonzero;"/><rect x="1599.79" y="282.8" width="279.12" height="197.548" style="fill:#dfebfd;fill-rule:nonzero;"/><rect x="1621.47" y="298.314" width="77.91" height="69.678" style="fill:#bad4f4;fill-rule:nonzero;"/><rect x="1774.2" y="414.702" width="75.64" height="43.636" style="fill:#bad4f4;fill-rule:nonzero;"/><rect x="1712.31" y="300.955" width="66.07" height="3.521" style="fill:#bad4f4;fill-rule:nonzero;"/><rect x="1782.51" y="300.955" width="29.11" height="3.521" style="fill:#bad4f4;fill-rule:nonzero;"/><rect x="1815.73" y="300.955" width="29.1" height="3.521" style="fill:#bad4f4;fill-rule:nonzero;"/><rect x="1712.31" y="311.519" width="66.07" height="3.521" style="fill:#bad4f4;fill-rule:nonzero;"/><rect x="1782.51" y="311.519" width="29.11" height="3.521" style="fill:#bad4f4;fill-rule:nonzero;"/><rect x="1815.73" y="311.519" width="29.1" height="3.521" style="fill:#bad4f4;fill-rule:nonzero;"/><rect x="1712.31" y="322.082" width="66.07" height="3.521" style="fill:#bad4f4;fill-rule:nonzero;"/><rect x="1782.51" y="322.082" width="29.11" height="3.521" style="fill:#bad4f4;fill-rule:nonzero;"/><rect x="1815.73" y="322.082" width="29.1" height="3.521" style="fill:#bad4f4;fill-rule:nonzero;"/><rect x="1712.31" y="343.697" width="66.07" height="3.521" style="fill:#bad4f4;fill-rule:nonzero;"/><rect x="1782.51" y="343.697" width="29.11" height="3.521" style="fill:#bad4f4;fill-rule:nonzero;"/><rect x="1815.73" y="343.697" width="29.1" height="3.521" style="fill:#bad4f4;fill-rule:nonzero;"/><rect x="1712.31" y="354.26" width="66.07" height="3.521" style="fill:#bad4f4;fill-rule:nonzero;"/><rect x="1782.51" y="354.26" width="29.11" height="3.521" style="fill:#bad4f4;fill-rule:nonzero;"/><rect x="1815.73" y="354.26" width="29.1" height="3.521" style="fill:#bad4f4;fill-rule:nonzero;"/><rect x="1712.31" y="364.823" width="66.07" height="3.522" style="fill:#bad4f4;fill-rule:nonzero;"/><rect x="1782.51" y="364.823" width="29.11" height="3.522" style="fill:#bad4f4;fill-rule:nonzero;"/><rect x="1815.73" y="364.823" width="29.1" height="3.522" style="fill:#bad4f4;fill-rule:nonzero;"/><rect x="1621.47" y="415.395" width="39.68" height="3.521" style="fill:#bad4f4;fill-rule:nonzero;"/><rect x="1726.13" y="415.395" width="29.46" height="3.521" style="fill:#bad4f4;fill-rule:nonzero;"/><rect x="1665.98" y="415.395" width="29.45" height="3.521" style="fill:#bad4f4;fill-rule:nonzero;"/><rect x="1699.38" y="415.395" width="22.18" height="3.521" style="fill:#bad4f4;fill-rule:nonzero;"/><rect x="1621.47" y="425.958" width="66.86" height="3.521" style="fill:#bad4f4;fill-rule:nonzero;"/><rect x="1692.51" y="425.958" width="29.46" height="3.521" style="fill:#bad4f4;fill-rule:nonzero;"/><rect x="1726.13" y="425.958" width="29.46" height="3.521" style="fill:#bad4f4;fill-rule:nonzero;"/><rect x="1621.47" y="386.439" width="39.68" height="3.521" style="fill:#bad4f4;fill-rule:nonzero;"/><rect x="1726.13" y="386.439" width="29.46" height="3.521" style="fill:#bad4f4;fill-rule:nonzero;"/><rect x="1759.27" y="386.439" width="93.39" height="3.521" style="fill:#bad4f4;fill-rule:nonzero;"/><rect x="1665.98" y="386.439" width="29.45" height="3.521" style="fill:#bad4f4;fill-rule:nonzero;"/><rect x="1699.38" y="386.439" width="22.18" height="3.521" style="fill:#bad4f4;fill-rule:nonzero;"/><rect x="1621.47" y="397.002" width="66.86" height="3.521" style="fill:#bad4f4;fill-rule:nonzero;"/><rect x="1692.51" y="397.002" width="58.08" height="3.521" style="fill:#bad4f4;fill-rule:nonzero;"/><rect x="1754.61" y="397.002" width="38.82" height="3.521" style="fill:#bad4f4;fill-rule:nonzero;"/><rect x="1799.08" y="397.002" width="29.45" height="3.521" style="fill:#bad4f4;fill-rule:nonzero;"/><rect x="1621.47" y="436.518" width="52.6" height="3.52" style="fill:#bad4f4;fill-rule:nonzero;"/><rect x="1726.13" y="436.518" width="29.46" height="3.52" style="fill:#bad4f4;fill-rule:nonzero;"/><rect x="1680.06" y="436.518" width="38.65" height="3.52" style="fill:#bad4f4;fill-rule:nonzero;"/><rect x="1621.47" y="447.478" width="66.86" height="3.52" style="fill:#bad4f4;fill-rule:nonzero;"/><rect x="1692.51" y="447.478" width="29.46" height="3.52" style="fill:#bad4f4;fill-rule:nonzero;"/><rect x="1726.13" y="447.478" width="29.46" height="3.52" style="fill:#bad4f4;fill-rule:nonzero;"/><rect x="2038.44" y="282.8" width="139.56" height="197.548" style="fill:#dfebfd;fill-rule:nonzero;"/><rect x="2115.3" y="298.314" width="53.32" height="66.509" style="fill:#bad4f4;fill-rule:nonzero;"/><rect x="2050.83" y="375.779" width="34.55" height="3.521" style="fill:#bad4f4;fill-rule:nonzero;"/><rect x="2050.83" y="299.195" width="53.82" height="3.521" style="fill:#bad4f4;fill-rule:nonzero;"/><rect x="2050.83" y="314.453" width="53.82" height="3.521" style="fill:#bad4f4;fill-rule:nonzero;"/><rect x="2050.83" y="322.082" width="30.32" height="3.521" style="fill:#bad4f4;fill-rule:nonzero;"/><rect x="2084.15" y="322.082" width="22.66" height="3.521" style="fill:#bad4f4;fill-rule:nonzero;"/><rect x="2050.83" y="306.823" width="21.56" height="3.522" style="fill:#bad4f4;fill-rule:nonzero;"/><rect x="2077.74" y="306.823" width="21.57" height="3.522" style="fill:#bad4f4;fill-rule:nonzero;"/><rect x="2141.96" y="375.779" width="25.65" height="3.521" style="fill:#bad4f4;fill-rule:nonzero;"/><rect x="2089.58" y="375.779" width="25.65" height="3.521" style="fill:#bad4f4;fill-rule:nonzero;"/><rect x="2118.67" y="375.779" width="19.31" height="3.521" style="fill:#bad4f4;fill-rule:nonzero;"/><rect x="2050.83" y="386.343" width="58.22" height="3.521" style="fill:#bad4f4;fill-rule:nonzero;"/><rect x="2112.69" y="386.343" width="25.65" height="3.521" style="fill:#bad4f4;fill-rule:nonzero;"/><rect x="2141.96" y="386.343" width="25.65" height="3.521" style="fill:#bad4f4;fill-rule:nonzero;"/><rect x="2050.83" y="396.906" width="45.8" height="3.521" style="fill:#bad4f4;fill-rule:nonzero;"/><rect x="2141.96" y="396.906" width="25.65" height="3.521" style="fill:#bad4f4;fill-rule:nonzero;"/><rect x="2101.85" y="396.906" width="33.65" height="3.521" style="fill:#bad4f4;fill-rule:nonzero;"/><rect x="2050.83" y="407.861" width="58.22" height="3.521" style="fill:#bad4f4;fill-rule:nonzero;"/><rect x="2112.69" y="407.861" width="25.65" height="3.521" style="fill:#bad4f4;fill-rule:nonzero;"/><rect x="2141.96" y="407.861" width="25.65" height="3.521" style="fill:#bad4f4;fill-rule:nonzero;"/><rect x="2050.83" y="425.69" width="34.55" height="3.521" style="fill:#bad4f4;fill-rule:nonzero;"/><rect x="2141.96" y="425.69" width="25.65" height="3.521" style="fill:#bad4f4;fill-rule:nonzero;"/><rect x="2089.58" y="425.69" width="25.65" height="3.521" style="fill:#bad4f4;fill-rule:nonzero;"/><rect x="2118.67" y="425.69" width="19.31" height="3.521" style="fill:#bad4f4;fill-rule:nonzero;"/><rect x="2050.83" y="436.258" width="58.22" height="3.52" style="fill:#bad4f4;fill-rule:nonzero;"/><rect x="2112.69" y="436.258" width="25.65" height="3.52" style="fill:#bad4f4;fill-rule:nonzero;"/><rect x="2141.96" y="436.258" width="25.65" height="3.52" style="fill:#bad4f4;fill-rule:nonzero;"/><rect x="2050.83" y="446.818" width="45.8" height="3.52" style="fill:#bad4f4;fill-rule:nonzero;"/><rect x="2141.96" y="446.818" width="25.65" height="3.52" style="fill:#bad4f4;fill-rule:nonzero;"/><rect x="2101.85" y="446.818" width="33.65" height="3.52" style="fill:#bad4f4;fill-rule:nonzero;"/><rect x="2050.83" y="457.768" width="58.22" height="3.52" style="fill:#bad4f4;fill-rule:nonzero;"/><rect x="2112.69" y="457.768" width="25.65" height="3.52" style="fill:#bad4f4;fill-rule:nonzero;"/><rect x="2141.96" y="457.768" width="25.65" height="3.52" style="fill:#bad4f4;fill-rule:nonzero;"/><rect x="1712.7" y="161.694" width="224.7" height="20.113" style="fill:#fff;fill-rule:nonzero;"/><rect x="1744.67" y="74.463" width="2.09" height="87.231" style="fill:#fff;fill-rule:nonzero;"/><rect x="1903.59" y="74.463" width="2.09" height="87.231" style="fill:#fff;fill-rule:nonzero;"/><rect x="1176.28" y="161.694" width="224.71" height="20.113" style="fill:#fff;fill-rule:nonzero;"/><path d="M1210.35,112.288l0,49.41l-2.09,0l0,-49.12c0.7,-0.09 1.4,-0.19 2.09,-0.29Z" style="fill:#fff;fill-rule:nonzero;"/><path d="M1369.26,84.138l0,77.56l-2.09,0l0,-77.13c0.7,-0.15 1.39,-0.29 2.09,-0.43Z" style="fill:#fff;fill-rule:nonzero;"/><rect x="520.763" y="161.694" width="224.707" height="20.113" style="fill:#fff;fill-rule:nonzero;"/><path d="M552.737,110.638l0,51.06l2.09,0l0,-51.26l-2.09,0.2Z" style="fill:#fff;fill-rule:nonzero;"/><path d="M713.747,105.918l0,55.78l-2.09,0l0,-55.82c0.7,0.01 1.39,0.03 2.09,0.04Z" style="fill:#fff;fill-rule:nonzero;"/><path d="M142.108,817.838c0,0 -10.984,-12.81 -0.677,-20.95c0,0 7.529,-4.56 13.667,-4.19c0,0 -8.698,14.59 -5.884,16.04c2.814,1.45 8.521,-16.95 8.521,-16.95c0,0 17.133,-1.66 22.645,0.98c0,0 -14.647,11.99 -11.562,12.7c3.084,0.72 18.904,-11.05 18.904,-11.05c0,0 15.946,2.72 15.096,12.44c-0.85,9.73 -6.345,12.74 -8.76,12.48c-2.415,-0.26 -16.541,-5.65 -16.848,-3.68c-0.308,1.98 8.195,8.45 14.15,8.75c0,0 -11.243,12.4 -18.714,8.82c-7.472,-3.58 -8.11,-9.25 -12.767,-11.38c-4.658,-2.12 -8.633,-2.12 -6.71,0.05c1.923,2.17 10.352,4.28 13.015,8.99c2.663,4.71 5.054,7.89 -2.677,6.73c-7.73,-1.17 -20.296,-6.82 -20.847,-13.3l-0.552,-6.48Z" style="fill:#77a4e5;fill-rule:nonzero;"/><path d="M194.983,807.128c0,0 -43.31,-1.67 -52.875,10.71c0,0 -2.116,6.34 -8.624,12.11l-1.015,2.76c0,0 7.505,-7.91 10.191,-8.39c0,0 -4.2,-15.34 52.323,-17.19Z" style="fill:#77a4e5;fill-rule:nonzero;"/><path d="M133.484,829.948c0,0 -9.296,6.87 -9.942,19.16l1.687,0.15c0,0 2.969,-12.7 8.336,-17.67c5.366,-4.97 -0.081,-1.64 -0.081,-1.64Z" style="fill:#77a4e5;fill-rule:nonzero;"/><path d="M103.703,801.728c0,0 17.473,-9.79 9.319,-23.07c0,0 -6.524,-8.15 -13.513,-10.25c0,0 3.728,19.81 0,20.27c-3.728,0.47 -2.563,-22.37 -2.563,-22.37c0,0 -18.405,-8.85 -25.627,-8.15c0,0 11.416,19.34 7.688,18.87c-3.728,-0.46 -16.542,-20.03 -16.542,-20.03c0,0 -18.871,-3.5 -21.9,7.68c-3.029,11.19 1.864,16.78 4.66,17.48c2.795,0.7 20.735,0.46 20.269,2.79c-0.466,2.33 -12.581,6.06 -19.338,3.96c0,0 7.456,18.41 17.241,17.48c9.785,-0.93 12.814,-6.99 18.871,-7.46c6.058,-0.46 10.485,1.17 7.456,2.8c-3.029,1.63 -13.28,0.53 -18.173,4.69c-4.892,4.16 -8.853,6.72 0.233,8.59c9.087,1.86 25.395,0.7 28.657,-6.29l3.262,-6.99Z" style="fill:#77a4e5;fill-rule:nonzero;"/><path d="M49.185,768.178c0,0 48.926,15.84 54.518,33.55c0,0 -0.234,7.92 4.66,17.01l0,3.49c0,0 -5.126,-11.88 -7.922,-13.51c0,0 10.95,-15.38 -51.256,-40.54Z" style="fill:#77a4e5;fill-rule:nonzero;"/><path d="M108.363,818.738c0,0 7.544,11.45 3.243,25.4l-1.941,-0.52c0,0 1.884,-15.36 -2.064,-23.09c-3.947,-7.73 0.762,-1.79 0.762,-1.79Z" style="fill:#77a4e5;fill-rule:nonzero;"/><path d="M131.502,788.228c0,0 -23.034,-12.9 -12.285,-30.4c0,0 8.599,-10.75 17.813,-13.51c0,0 -4.914,26.1 0,26.71c4.914,0.62 3.378,-29.48 3.378,-29.48c0,0 24.262,-11.67 33.782,-10.75c0,0 -15.048,25.49 -10.135,24.88c4.914,-0.62 21.805,-26.41 21.805,-26.41c0,0 24.876,-4.61 28.869,10.13c3.992,14.74 -2.457,22.11 -6.142,23.04c-3.686,0.92 -27.333,0.61 -26.719,3.68c0.614,3.07 16.584,7.99 25.49,5.22c0,0 -9.828,24.26 -22.726,23.04c-12.899,-1.23 -16.891,-9.22 -24.876,-9.83c-7.985,-0.62 -13.82,1.53 -9.828,3.68c3.993,2.15 17.506,0.71 23.955,6.19c6.449,5.48 11.67,8.86 -0.307,11.32c-11.978,2.45 -33.476,0.92 -37.775,-8.29l-4.299,-9.22Z" style="fill:#9fc1f4;fill-rule:nonzero;"/><path d="M203.365,744.008c0,0 -64.493,20.88 -71.863,44.22c0,0 0.307,10.44 -6.142,22.42l0,4.61c0,0 6.756,-15.66 10.441,-17.81c0,0 -14.434,-20.27 67.564,-53.44Z" style="fill:#9fc1f4;fill-rule:nonzero;"/><path d="M125.36,810.648c0,0 -9.947,15.11 -4.276,33.49l2.558,-0.69c0,0 -2.484,-20.25 2.72,-30.43c5.204,-10.19 -1.002,-2.37 -1.002,-2.37Z" style="fill:#9fc1f4;fill-rule:nonzero;"/><path d="M130.725,884.008c24.919,0 45.119,-20.2 45.119,-45.12l-90.237,0c0,24.92 20.2,45.12 45.118,45.12Z" style="fill:#9fc1f4;fill-rule:nonzero;"/><path d="M141.828,883.658c-1.836,0.23 -3.706,0.35 -5.606,0.35c-24.918,0 -45.116,-20.2 -45.116,-45.12l11.209,0c0,23.02 17.239,42.01 39.513,44.77Z" style="fill:#afcdfb;fill-rule:nonzero;"/><rect x="84.123" y="838.888" width="92.747" height="1.38" style="fill:#9fc1f4;fill-rule:nonzero;"/><rect x="115.354" y="881.168" width="28.659" height="5.15" style="fill:#9fc1f4;fill-rule:nonzero;"/><path d="M999.177,493.588c-6.05,0 -10.95,4.91 -10.95,10.96l0,78.24c0,8.98 5.66,16.64 13.6,19.61c4.58,1.71 7.7,5.99 8.09,10.86l33.67,0c0,0 1.46,-7.54 7.63,-9.55c8.23,-3.42 15.19,-8.54 14.06,-20.77l0,-77.8c0,-6.38 -5.17,-11.55 -11.54,-11.55l-54.56,0Z" style="fill:#9fc1f4;fill-rule:nonzero;"/><path d="M1064.84,561.498l-76.65,0c-0.83,0 -1.51,-0.67 -1.51,-1.5l0,-8.55c0,-0.83 0.68,-1.51 1.51,-1.51l76.65,0c0.83,0 1.51,0.68 1.51,1.51l0,8.55c0,0.83 -0.68,1.5 -1.51,1.5Z" style="fill:#77a4e5;fill-rule:nonzero;"/><path d="M1064.84,585.958l-76.65,0c-0.83,0 -1.51,-0.68 -1.51,-1.51l0,-8.55c0,-0.82 0.68,-1.5 1.51,-1.5l76.65,0c0.83,0 1.51,0.68 1.51,1.5l0,8.55c0,0.83 -0.68,1.51 -1.51,1.51Z" style="fill:#77a4e5;fill-rule:nonzero;"/><path d="M1049.95,616.108l-47.57,0l1.41,-4.69c0.36,-1.19 1.46,-2.01 2.71,-2.01l39.07,0c1.2,0 2.26,0.75 2.66,1.88l1.72,4.82Z" style="fill:#bad4f4;fill-rule:nonzero;"/><path d="M1069.3,882.428l-83.16,0c-3.68,0 -6.66,-2.98 -6.66,-6.66l0,-253c0,-3.68 2.98,-6.66 6.66,-6.66l83.16,0c3.67,0 6.66,2.98 6.66,6.66l0,253c0,3.68 -2.99,6.66 -6.66,6.66Z" style="fill:#cde0fb;fill-rule:nonzero;"/><rect x="995.717" y="657.308" width="64.32" height="87.77" style="fill:#bad4f4;fill-rule:nonzero;"/><rect x="995.717" y="657.308" width="64.32" height="19.77" style="fill:#9fc1f4;fill-rule:nonzero;"/><rect x="1035.47" y="684.288" width="8.45" height="18.07" style="fill:#dfebfd;fill-rule:nonzero;"/><rect x="1035.47" y="684.288" width="8.45" height="4.81" style="fill:#77a4e5;fill-rule:nonzero;"/><rect x="1011.17" y="684.288" width="8.46" height="18.07" style="fill:#dfebfd;fill-rule:nonzero;"/><rect x="1011.17" y="684.288" width="8.46" height="4.81" style="fill:#f99746;fill-rule:nonzero;"/><path d="M1012.91,702.478l0.84,4.16c0.07,0.34 0.37,0.59 0.72,0.59l1.47,0c0.35,0 0.65,-0.25 0.72,-0.59l0.87,-4.15c0.1,-0.46 -0.25,-0.89 -0.72,-0.89l-3.18,0c-0.46,0 -0.81,0.43 -0.72,0.88Z" style="fill:#dfebfd;fill-rule:nonzero;"/><path d="M1037.38,702.478l0.84,4.16c0.07,0.34 0.37,0.59 0.72,0.59l1.47,0c0.35,0 0.65,-0.25 0.72,-0.59l0.87,-4.15c0.1,-0.46 -0.25,-0.89 -0.71,-0.89l-3.19,0c-0.46,0 -0.81,0.43 -0.72,0.88Z" style="fill:#dfebfd;fill-rule:nonzero;"/><rect x="1001.08" y="742.898" width="52.77" height="2.18" style="fill:#9fc1f4;fill-rule:nonzero;"/><path d="M999.497,754.628c-1.8,0 -3.27,1.47 -3.27,3.28l0,19.24c0,1.81 1.47,3.27 3.27,3.27l56.76,0c1.81,0 3.28,-1.46 3.28,-3.27l0,-19.24c0,-1.81 -1.47,-3.28 -3.28,-3.28l-56.76,0Zm56.76,26.8l-56.76,0c-2.36,0 -4.28,-1.92 -4.28,-4.28l0,-19.24c0,-2.36 1.92,-4.28 4.28,-4.28l56.76,0c2.36,0 4.29,1.92 4.29,4.28l0,19.24c0,2.36 -1.93,4.28 -4.29,4.28Z" style="fill:#9fc1f4;fill-rule:nonzero;"/><rect x="991.867" y="882.428" width="6.2" height="3.19" style="fill:#233862;fill-rule:nonzero;"/><rect x="1058.87" y="882.428" width="6.2" height="3.19" style="fill:#233862;fill-rule:nonzero;"/><path d="M1685.6,21.458c-108.46,16.222 -215.15,41.905 -322.5,63.943c-4.25,0.871 -8.49,1.732 -12.74,2.587l913.02,0c-2.94,-1.984 -5.9,-3.951 -8.89,-5.876c-73.98,-47.67 -157.79,-72.525 -245.28,-79.236c-107.22,-8.225 -217.63,2.192 -323.61,18.582Z" style="fill:#dceaff;fill-rule:nonzero;"/><path d="M1917.19,525.418l-41.06,0.19l20.73,73.75l39.479,-8.19l-19.149,-65.75Z" style="fill:#f9ddbf;fill-rule:nonzero;"/><path d="M1897.17,570.188c0,0 -0.14,-0.89 -1.19,-2.04c-0.68,-1.24 -2.3,-4.99 -2.38,-5.86c-0.24,-2.73 -2.09,-1.77 -2.38,0.63c-0.06,0.52 0.25,1.79 0.26,2.35c-2.28,0.92 -4.6,-0.97 -5.17,-3.45c-0.28,-1.19 -0.71,-2.37 -0.89,-3.14c-0.25,-1.09 -2.9,0.73 -2.97,2.62c-0.12,3.04 -0.07,11.26 0.69,12.58c1.29,2.22 8.67,4.48 12.46,4.97l4.51,0.35l2.62,-7.27l-5.56,-1.74Z" style="fill:#ffb27d;fill-rule:nonzero;"/><path d="M2035.64,866.808c0,0 -1.19,19.2 -4.9,19.47c-0.5,0.04 -18.84,0.04 -18.84,0.04l-23.42,-0.14c0,0 0.15,-5.64 7,-6.83c6.84,-1.19 18.3,-6.01 22.45,-15.05c4.36,-9.52 17.71,2.51 17.71,2.51Z" style="fill:#163560;fill-rule:nonzero;"/><path d="M2036.99,868.138c0,0 -7.12,2.38 -12.68,2.38c-6.2,0 -11.83,-1.69 -11.83,-1.69c0,0 -1.34,-12.96 -8.72,-41.52c-3.87,-14.97 -9.39,-34.22 -17.25,-58.13c-21.72,-66.11 -28.33,-104.77 -28.931,-108.44c-0.029,-0.19 -0.039,-0.29 -0.039,-0.29l0.069,-0.03l66.791,-29.32c0,0 -8.26,91.1 2.27,126.07c1.48,4.89 2.74,10.58 3.82,16.75c6.66,37.98 6.5,94.22 6.5,94.22Z" style="fill:#2b478b;fill-rule:nonzero;"/><path d="M2030.49,773.918l-26.73,53.39c-3.87,-14.97 -9.39,-34.22 -17.25,-58.13c-21.72,-66.11 -28.33,-104.77 -28.931,-108.44c0.01,-0.11 0.01,-0.21 0.03,-0.32l66.791,-29.32c0,0 -8.26,91.1 2.27,126.07c1.48,4.89 2.74,10.58 3.82,16.75Z" style="fill:#233862;fill-rule:nonzero;"/><path d="M1983.48,866.808c0,0 -1.19,19.2 -4.91,19.47c-0.491,0.04 -18.84,0.04 -18.84,0.04l-23.42,-0.14c0,0 0.16,-5.64 7,-6.83c6.85,-1.19 18.309,-6.01 22.45,-15.05c4.359,-9.52 17.72,2.51 17.72,2.51Z" style="fill:#163560;fill-rule:nonzero;"/><path d="M1945.61,633.248c0,0 -0.869,59.03 9.351,131.51c10.21,72.49 6.75,103.26 6.75,103.26c0,0 7.02,2.27 9.85,2.5c7.22,0.59 14.61,-1.69 14.61,-1.69c0,0 14.62,-72.51 10.43,-108.79c-4.19,-36.28 20.02,-124.49 20.02,-124.49l-71.011,-2.3Z" style="fill:#2b478b;fill-rule:nonzero;"/><path d="M1994.31,492.958l-11.01,11.03l-19.15,0.41c-0.061,-1.54 -0.13,-7.96 -0.19,-13.78c0,-0.34 0,-0.69 -0.01,-1.02c-0.04,-4.96 -0.081,-9.21 -0.081,-9.21l15.641,-11.199l5.83,-4.171c0,0.1 0.6,5.38 0.69,6.151c1.6,13.669 8.28,21.789 8.28,21.789Z" style="fill:#ffb27d;fill-rule:nonzero;"/><path d="M1941.72,635.798c0.27,31.16 2.34,104.06 3.869,105.54c16.231,15.66 87.621,-4.3 91.401,-21.56c3.78,-17.26 -14.38,-221.3 -42.1,-229.45c-5.75,-1.68 -36.511,8.26 -36.511,8.26c0,0 -4.819,12.61 -7.979,28.69c-1.17,5.96 -5,48.46 -7.24,76.86c-0.581,7.57 -1.071,14.13 -1.35,18.74c-0.12,1.9 -0.14,6.54 -0.09,12.92Z" style="fill:#afcdfb;fill-rule:nonzero;"/><path d="M1984.79,471.669c-2.44,7.199 -15.38,15.679 -20.83,18.949c0,-0.34 0,-0.69 -0.01,-1.02c-0.04,-4.96 -0.081,-9.21 -0.081,-9.21l15.641,-11.199c3.79,-0.851 6.29,-0.481 5.28,2.48Z" style="fill:#fca56b;fill-rule:nonzero;"/><path d="M1957.16,480.698c0,0 29.55,2.85 31.05,-15.57c1.5,-18.43 6.32,-30.48 -12.49,-33.08c-18.8,-2.604 -23.04,4.13 -25.04,10.16c-1.99,6.03 -1.16,37.27 6.48,38.49Z" style="fill:#ffb27d;fill-rule:nonzero;"/><path d="M1951.42,440.308c0,0 5.99,19.83 9.99,18.08c3.99,-1.75 7.65,-3.19 8.31,3.031c0.659,6.209 -3.67,14.459 9.43,12.839c13.1,-1.61 24.67,-38.68 19.82,-44.227c-13.99,-16.006 -66.92,-8.768 -47.55,10.277Z" style="fill:#163560;fill-rule:nonzero;"/><path d="M1965.92,490.778c0.37,-0.15 21.1,-9.45 23.52,-8.65c2.43,0.8 5.45,8.21 5.45,8.21l-36.5,8.25c0,0 2.87,-5.84 7.53,-7.81Z" style="fill:#95b3ef;fill-rule:nonzero;"/><path d="M1941.72,635.798c67.73,-45.87 62.21,-108.96 62.21,-108.96c-26.43,14.91 -52.62,50.21 -60.77,77.3c-0.581,7.57 -1.071,14.13 -1.35,18.74c-0.12,1.9 -0.14,6.54 -0.09,12.92Z" style="fill:#95b3ef;fill-rule:nonzero;"/><path d="M1976.64,511.048c0,0 -19.1,66.36 -26.88,66.36c-5.161,0 -50.31,-7.47 -50.31,-7.47l-4.16,9.78c0,0 50.299,33.14 68.579,26.47c28.961,-10.57 46.431,-61.87 40.061,-79.35c-6.36,-17.47 -15.08,-23.34 -27.29,-15.79Z" style="fill:#afcdfb;fill-rule:nonzero;"/><path d="M419.585,592.778l-0.679,7.55c0,0 -0.497,0.03 -1.363,0.01c-2.735,-0.02 -9.378,-0.01 -16.914,-0.38c-7.186,-0.29 -15.245,-0.88 -21.578,-2.03c-3.654,-0.67 -6.738,-1.52 -8.75,-2.6c-8.395,-4.49 -22.584,-18.88 -32.128,-33.54c-0.272,-0.36 -0.479,-0.72 -0.687,-1.08c-3.217,-5.02 -5.87,-10.06 -7.509,-14.7c-0.904,-2.55 -1.494,-4.98 -1.713,-7.24c-0.412,-3.89 -0.175,-7.26 0.464,-10.21c0.825,-3.9 2.386,-7.03 4.048,-9.43c0.224,-0.38 0.448,-0.77 0.802,-1.1c2.77,-3.7 5.593,-5.36 5.593,-5.36c1.156,-0.56 2.439,-0.26 3.806,0.75c0.154,0.1 0.304,0.23 0.459,0.35l0.023,0.02c0.196,0.16 0.392,0.34 0.589,0.53l0.003,0.06c0.51,0.47 1.036,1.04 1.578,1.69l0.011,0.01c0.995,1.19 2.028,2.66 3.047,4.37l0.136,0.18c0.339,0.53 0.686,1.13 1.097,1.79c0.132,0.12 0.203,0.3 0.27,0.42c0.765,1.39 1.534,2.83 2.306,4.34c8.573,16.14 18.139,40.8 25.321,47.9c1.673,1.65 6.44,4.02 12.181,6.5l0.001,0.01c0.106,0.04 0.219,0.09 0.331,0.14l0.034,0.01c4.786,2.06 10.216,4.19 15.083,6.02c7.803,2.9 14.138,5.02 14.138,5.02Z" style="fill:#ffb27d;fill-rule:nonzero;"/><path d="M390.286,581.848c-0.305,0.85 -1.714,4.81 -4.108,8.92c-1.948,3.32 -2.5,6.01 -5.716,7.88c-3.521,0.03 -9.261,-2.12 -11.373,-3c-7.125,-2.97 -11.503,-6.46 -15.012,-10.6c-4.155,-4.87 -7.101,-10.64 -11.948,-17.46c-1.374,-1.91 -2.688,-3.86 -3.956,-5.8c-0.27,-0.35 -0.481,-0.71 -0.692,-1.08c-3.217,-5.02 -5.869,-10.06 -7.5,-14.7c0,0 2.781,-38.63 16.866,-34.56c13.286,3.86 23.791,56.53 30.974,63.63c1.667,1.65 6.432,4.02 12.171,6.5l0.012,0.01c0.13,0.17 0.223,0.26 0.282,0.26Z" style="fill:#afcdfb;fill-rule:nonzero;"/><path d="M363.404,874.868l-8.192,3.05c0,0 -35.584,-49.35 -39.965,-92.78c-0.782,-7.75 -0.521,-15.26 1.171,-22.19c0,0 -0.348,-1.99 -0.957,-5.5c-0.281,-1.64 -0.628,-3.61 -1.023,-5.87c-1.157,-6.63 -2.749,-15.7 -4.568,-26.03c-4.187,-23.76 -9.611,-54.14 -13.825,-76.48l2.207,-0.7l23.884,-7.71l4.936,-15.68l17.785,-4.68c0,0 3.973,7.77 7.525,44.49c0.655,4.81 1.25,10.12 1.698,15.88c1.385,17.58 1.485,39.38 -1.692,64.31c-0.816,6.38 -1.846,12.97 -3.123,19.74c-0.937,4.96 -1.077,11.72 -0.682,19.49c1.792,35.49 14.821,90.66 14.821,90.66Z" style="fill:#f99746;fill-rule:nonzero;"/><path d="M354.08,681.948l-38.619,75.5c-0.281,-1.61 -0.628,-3.55 -1.023,-5.78c-1.157,-6.52 -2.749,-15.43 -4.568,-25.59c-4.187,-23.37 -9.611,-53.24 -13.825,-75.2l2.207,-0.7l23.884,-7.57l4.936,-15.42l17.785,-4.6c0,0 3.973,7.64 7.525,43.74c0.655,4.73 1.25,9.96 1.698,15.62Z" style="fill:#ed7d2b;fill-rule:nonzero;"/><path d="M337.091,630.148l-0.894,-7.66c-14.978,3.98 -54.997,-11.12 -54.997,-11.12c0,0 -14.51,12.76 -12.605,43.33c0.93,14.92 2.628,78.33 4.402,97.1c0.641,6.8 1.203,11.64 1.432,13.57l0.005,0.02c0.071,0.59 -0.135,1.15 -0.435,1.66c-2.612,4.43 -4.774,9.05 -6.548,13.77c-17.412,46.4 2.682,103.54 2.682,103.54l5.214,-2.1c0,0 11.434,-63.59 20.725,-91.68c1.578,-4.77 3.09,-8.51 4.476,-10.75c4.039,-6.52 7.788,-17.17 11.191,-29.84c6.431,-23.96 11.607,-55.12 15.052,-79.18c0.475,0.03 10.3,-40.66 10.3,-40.66Z" style="fill:#f99746;fill-rule:nonzero;"/><path d="M326.55,535.748c-25.083,5.99 -26.381,-32.78 -24.8,-32.87c2.805,-2.19 6.943,-11.06 7.769,-24.8l1.185,0.31l19.843,5.27c0,0 -0.86,6.3 -1.26,12.25c-0.309,4.66 -0.329,9.11 0.561,10.19c1.548,0.33 2.477,0.54 2.477,0.54l0.01,0.02c0.269,0.43 0.906,27.49 -5.785,29.09Z" style="fill:#ffb27d;fill-rule:nonzero;"/><path d="M308.638,428.714c-0.24,-1.091 -3.241,-12.772 -21.382,-10.114c0,0 9.057,-0.554 11.297,3.065c0,0 -6.912,-3.719 -11.546,-1.276c-4.634,2.442 -5.956,11.579 -5.47,14.419c0.486,2.84 4.877,11.47 8.139,11.68c1.235,0.08 2.582,-0.25 3.779,-0.68c-0.594,1.45 -1.148,3.02 -1.636,4.76c-4.509,16.08 5.533,29.16 11.334,26.46c3.72,-1.729 6.036,4.73 6.036,4.73l32.363,-37.62c0,0 -19.181,-26.305 -32.914,-15.424Z" style="fill:#2c3a64;fill-rule:nonzero;"/><path d="M330.548,483.658c0,0 -0.863,6.3 -1.259,12.25c-11.228,-1.03 -16.515,-11.68 -18.586,-17.52l19.845,5.27Z" style="fill:#ed985f;fill-rule:nonzero;"/><path d="M333.942,489.538c0,0 -26.64,-1.27 -25.595,-17.84c1.046,-16.58 -1.688,-27.91 15.366,-27.8c17.053,0.11 19.956,6.64 20.952,12.26c0.997,5.62 -3.766,33.29 -10.723,33.38Z" style="fill:#ffb27d;fill-rule:nonzero;"/><path d="M344.466,446.888c-3.794,-5.25 -6.973,-4.35 -8.811,-2.96c-14.032,-8.94 -24.164,2.29 -24.164,2.29c-2.544,11.78 -11.558,18.04 -11.558,18.04c0,0 4.658,3.311 16.025,1.15c3.472,-0.66 6.677,-2.89 9.459,-5.67c-5.012,7.3 -11.523,12.36 -11.523,12.36c13.753,-5.31 20.31,-23.55 20.97,-25.47c1.531,1.56 4.53,4.93 5.307,8.1c1.055,4.31 1.094,13.04 3.646,12.9c0,0 6.338,-12.86 0.649,-20.74Z" style="fill:#2c3a64;fill-rule:nonzero;"/><path d="M300.448,888.618l-41.262,0c0,0 -0.989,-6.29 1.166,-11.06c2.065,-4.58 5.3,-6.66 4.526,-12.2c2.621,2.7 6.895,5.73 12.86,4.92c0.73,1.19 4.718,7.53 7.159,9.28c2.696,1.94 14.72,1.25 15.551,9.06Z" style="fill:#233862;fill-rule:nonzero;"/><path d="M389.042,888.618l-41.262,0c0,0 -1.542,-6.58 1.167,-11.06c2.398,-3.96 1.479,-6.22 -0.297,-9.5c1.869,0.77 4.287,1.47 6.949,1.31c2.056,-0.11 4.23,-1.05 6.137,-2.16c1.775,2.03 9.38,10.65 11.756,12.35c2.696,1.94 14.72,1.25 15.55,9.06Z" style="fill:#233862;fill-rule:nonzero;"/><path d="M346.849,511.458l9.596,90.6l5.878,55.48c-5.908,3.09 -11.592,5.7 -17.034,7.89c-1.205,-4.52 -3.688,-9.74 -3.688,-9.74c0.588,2.87 -1.779,8.99 -3.23,12.35c-50.471,17.78 -78.965,-0.47 -78.965,-0.47c-1.626,-20.44 -0.248,-62.63 4.05,-98.58c0.897,-7.48 1.916,-14.68 3.064,-21.36c2.606,-15.2 4.557,-23.24 6.311,-29.52c3.339,-11.93 27.297,-15.57 27.297,-15.57c7.596,15.71 22.087,23.73 22.087,23.73c6.006,-5.18 8.491,-19.97 8.491,-19.97l16.143,5.16Z" style="fill:#afcdfb;fill-rule:nonzero;"/><path d="M304.827,498.518c0,0 -4.272,1.08 -4.697,4.02c0,0 9.774,21.69 22.082,23.72l-17.385,-27.74Z" style="fill:#95b3ef;fill-rule:nonzero;"/><path d="M322.212,526.258c0,0 7.523,-19.9 6.991,-22.58c0,0 4.771,0.92 4.996,3.73c0,0 -6.592,16.59 -11.987,18.85Z" style="fill:#95b3ef;fill-rule:nonzero;"/><path d="M305.264,543.108c0.508,1.02 25.642,46.07 51.181,58.95c11.255,5.68 -26.873,-1.84 -27.435,-3.41c-0.563,-1.56 -23.746,-55.54 -23.746,-55.54Z" style="fill:#95b3ef;fill-rule:nonzero;"/><path d="M356.445,602.058l4.009,37.84c-64.409,0 -71.276,-88.45 -71.276,-88.45l35.838,39.11l31.052,11.14c0,0 0.133,0.12 0.377,0.36Z" style="fill:#95b3ef;fill-rule:nonzero;"/><path d="M381.101,611.518l-1.095,8.15c0,0 -2.771,-0.13 -7.181,-0.35c-1.323,-0.08 -2.085,-0.16 -2.085,-0.16c-3.532,-0.21 -7.769,-0.58 -12.388,-0.96l-0.065,0c-7.927,-0.81 -16.824,-1.86 -24.406,-3.35c-0.681,-0.14 -1.351,-0.28 -2.005,-0.43c-4.499,-1 -8.429,-2.17 -11.281,-3.48c-0.334,-0.14 -0.602,-0.3 -0.944,-0.5c-7.887,-4.26 -18.49,-18.47 -27.34,-34.05c-1.226,-2.15 -2.393,-4.31 -3.547,-6.4c-4.177,-7.82 -7.727,-15.6 -10.142,-22.41c-1.482,-4.06 -2.606,-7.79 -3.151,-10.9c-0.208,-1.1 -0.414,-2.14 -0.48,-3.13c-2.273,-17.83 10.08,-21.37 12.01,-19.56c2.425,2.24 5.188,6.06 8.133,10.73c4.564,7.45 9.628,17.22 14.438,26.96c2.659,5.34 5.252,10.68 7.788,15.59c1.466,3 2.908,5.8 4.252,8.38c2.601,4.91 4.879,8.85 6.768,11.29c1.217,1.59 4.362,3.6 8.476,5.81c1.088,0.58 2.256,1.18 3.474,1.8c6.783,3.38 15.327,7.03 22.888,10.04c3.705,1.51 7.202,2.85 10.104,3.96c4.684,1.82 7.779,2.97 7.779,2.97Z" style="fill:#ffb27d;fill-rule:nonzero;"/><path d="M340.33,594.548c0,0 2.447,14.79 -10.493,23.89c-16.857,-3.65 -28.676,-26.47 -37.526,-42.05c-1.226,-2.15 -2.393,-4.31 -3.547,-6.4c-4.177,-7.82 -7.727,-15.6 -10.142,-22.41c-1.482,-4.06 -2.606,-7.79 -3.151,-10.9c-0.208,-1.1 -0.414,-2.14 -0.48,-3.13c-2.273,-17.83 10.08,-21.37 12.01,-19.56c2.425,2.24 5.188,6.06 8.133,10.73c4.564,7.45 9.628,17.22 14.438,26.96c2.659,5.34 5.252,10.68 7.788,15.59c1.466,3 2.908,5.8 4.252,8.38c2.601,4.91 4.879,8.85 6.768,11.29c1.217,1.59 4.362,3.6 8.476,5.81c1.088,0.58 2.256,1.18 3.474,1.8Z" style="fill:#afcdfb;fill-rule:nonzero;"/><path d="M402.163,573.598l-0.065,0.11l0.029,-0.12c0.031,-0.11 0.042,-0.11 0.036,0.01Z" style="fill:#abddda;fill-rule:nonzero;"/><path d="M440.391,634.768l-52.188,0.32l34.599,-57.02l52.188,-0.32l-34.599,57.02Z" style="fill:#2b478b;fill-rule:nonzero;"/><path d="M411.072,616.748c-3.41,-0.17 -8.889,-1.56 -11.946,-2.9c0,0 1.668,-0.84 2.691,-1.2l1.931,-3.18c-1.402,0.2 -2.731,1.09 -8.356,0.97c-2.263,-0.04 -7.118,2.58 -6.837,2.74c-3.972,-0.71 -7.57,-1.66 -8.733,-1.97c-0.307,-0.07 -0.427,-0.14 -0.427,-0.14l-5.383,8.31c0,0 3.671,0.42 4.96,0.73c3.245,0.96 8.345,3.98 14.842,6.15c3.719,1.24 10.505,-0.84 14.543,-2.33c3.288,-1.22 5.341,-3.47 6.22,-5.16c1.209,-2.31 -1.426,-1.91 -3.505,-2.02Z" style="fill:#ffb27d;fill-rule:nonzero;"/><path d="M380.462,598.648c-3.521,0.03 -9.261,-2.12 -11.373,-3c-7.125,-2.97 -11.503,-6.46 -15.012,-10.6l-2.242,-26.57c0.305,2.02 5.529,34.33 28.627,40.17Z" style="fill:#95b3ef;fill-rule:nonzero;"/><path d="M1766.68,658.288c0,0 6.13,-5.4 8.29,-6.39c2.16,-0.99 6.1,-4.88 6.83,-3.56c0.74,1.31 -2.49,3.88 -2.11,5.44c0.38,1.57 11.6,2.78 11.74,4.47c0.14,1.69 -1.87,6.05 -6.09,6.09c-4.22,0.04 -15.12,-0.96 -18.31,-0.47c-2.41,0.37 -0.35,-5.58 -0.35,-5.58Z" style="fill:#ffb27d;fill-rule:nonzero;"/><path d="M1660.47,600.328c0,0 6.5,-2.96 26.82,15.41c20.32,18.37 34.24,37.58 45.09,38.41c10.86,0.84 35.24,2.93 35.24,2.93l3.5,6.75c0,0 -0.87,2.91 -18.07,8.39c-14.71,4.67 -28.66,3.53 -30.04,3.36c-13.92,-1.67 -47.27,-23.95 -52.35,-30.63c-5.08,-6.68 -10.19,-44.62 -10.19,-44.62Z" style="fill:#fff;fill-rule:nonzero;"/><path d="M1804.14,802.328c-0.34,3.1 -0.05,7.8 0.65,13.34c2.74,21.95 11.68,56.99 11.68,56.99l11.2,1.36c-0.82,-6.2 1.51,-29.93 4.61,-56.23c4.67,-39.67 11.09,-85.19 11.09,-85.19c0,0 -24.39,-20.15 -38.75,-14.58c-14.37,5.57 1.2,68.94 -0.48,84.31Z" style="fill:#ffb27d;fill-rule:nonzero;"/><path d="M1804.79,815.668c2.74,21.95 11.68,56.99 11.68,56.99l11.2,1.36c-0.82,-6.2 1.51,-29.93 4.61,-56.23c-3.99,0.7 -14.8,2.1 -23.85,-1.31c-1.39,-0.53 -2.6,-0.77 -3.64,-0.81Z" style="fill:#efcdaf;fill-rule:nonzero;"/><path d="M1815.05,569.738c0,0 5.9,-2.84 12.53,0c6.62,2.83 11.45,14.9 8.48,26.17c-2.97,11.27 7.05,11.46 2.41,20.49c-1.64,3.21 -23.42,5.94 -24.17,-6.55c-0.46,-7.73 6.54,-8.11 4.5,-16.52c-2.04,-8.4 -3.75,-23.59 -3.75,-23.59Z" style="fill:#2c3a64;fill-rule:nonzero;"/><path d="M1783.77,799.928c-0.65,3.8 -0.47,10.15 0.16,17.56c1.9,22.36 7.98,54.33 7.98,54.33l11.08,2.56c-0.42,-6.11 3.2,-29.13 7.76,-54.88c7.1,-40.06 16.48,-86.74 16.48,-86.74c0,0 -23.1,-21.62 -37.78,-16.95c-14.68,4.67 -3.05,68.88 -5.68,84.12Z" style="fill:#ffc299;fill-rule:nonzero;"/><path d="M1827.53,871.808c0,0 2.66,4.88 7.73,6.02c3.2,0.71 5.93,2.39 7.62,4.74c1.43,1.98 0.02,4.74 -2.43,4.73l-25.76,-0.15c-2.2,-0.01 -3.9,-1.92 -3.67,-4.1c0.21,-1.9 0.42,-4.13 0.52,-5.83c0.21,-3.72 4.24,-7.06 4.24,-7.06c0,0 3.54,2.03 4.9,2.27c2.97,0.52 6.85,-0.62 6.85,-0.62Z" style="fill:#212d4c;fill-rule:nonzero;"/><path d="M1832.44,623.558c0,0 16.84,28.38 20.24,51.53c0,0 -8.19,11.05 -11.52,3.29c-3.33,-7.76 -27.24,-49.29 -8.72,-54.82Z" style="fill:#ffb27d;fill-rule:nonzero;"/><path d="M1829.24,573.158c-0.18,-0.3 -7.72,-12.21 -21.8,-14.59c-11.41,-1.92 -22.09,6.14 -23.84,17.57c-1.77,11.5 0.03,26.39 18.78,31.75l26.86,-34.73Z" style="fill:#2c3a64;fill-rule:nonzero;"/><path d="M1825.79,624.378l-21.21,12.6l-5.37,-14.94c0,0 2.46,-5.44 3.18,-14.15c0.3,-3.66 0.29,-7.9 -0.34,-12.55l18.45,8.01c0,0 -0.32,1.68 -0.45,4.14c-0.14,2.65 -0.05,6.22 0.91,9.54c0.83,2.86 2.3,5.54 4.83,7.35Z" style="fill:#ffb27d;fill-rule:nonzero;"/><path d="M1820.95,617.028c-10.17,0.38 -18.57,-9.14 -18.57,-9.14l17.66,-0.4c-0.14,2.65 -0.05,6.22 0.91,9.54Z" style="fill:#ed975d;fill-rule:nonzero;"/><path d="M1825.52,611.058c0,0 -19.92,6.64 -27.94,-9.03c-8.65,-16.92 -1.18,-30.12 5.65,-31.41c13.61,-2.58 21.92,2.15 24.68,7.53c2.77,5.37 8.62,29.34 -2.39,32.91Z" style="fill:#ffb27d;fill-rule:nonzero;"/><path d="M1816.91,602.488c0,0 0.98,2.04 6.25,0.53c0,0 4.43,-1.27 3.77,-3.6c0,0 -4.72,-0.72 -10.02,3.07Z" style="fill:#fff;fill-rule:nonzero;"/><path d="M1775.01,786.058c5.76,5.51 48.29,16.88 72.27,8.7c4.29,-1.46 -2.58,-134.01 -6.68,-159.61c-1.13,-7.02 -6.7,-12.48 -13.74,-13.43c-1.19,-0.17 -2.48,-0.32 -3.87,-0.46c0.29,3.15 -0.78,6.11 -6.27,7.18c-7.3,1.43 -14.2,-3.18 -17.75,-6.38c-5.72,1.19 -9.04,1.63 -13.58,3.52c-4.98,2.09 -7.94,7.26 -7.22,12.6l1.37,10.11l4.37,32.2c0.55,4.04 0.52,8.15 -0.09,12.18c-1.86,12.24 -4.82,42.06 -6.8,64.74c-1.39,15.95 -2.3,28.37 -2.01,28.65Z" style="fill:#f9ddbf;fill-rule:nonzero;"/><path d="M1811.56,572.478c0,0 1.89,18.69 -15.85,25.32c-7.05,2.63 -10.72,-25.92 4.02,-31.62c14.73,-5.7 29.26,1.07 31,11.04c1.74,9.96 0.42,12.04 0.42,12.04c0,0 -6.9,-18.96 -19.59,-16.78Z" style="fill:#2c3a64;fill-rule:nonzero;"/><path d="M1800.79,633.638c0,0 8.14,32.16 8.45,44.96c0,0 17.85,31.18 18.9,33.39c1.05,2.22 -6.44,5.25 -6.44,5.25c0,0 -22.4,-23.88 -26.71,-33.92c-4.32,-10.03 -19.63,-42.67 -13.5,-52.41c6.12,-9.74 19.3,2.73 19.3,2.73Z" style="fill:#ffb27d;fill-rule:nonzero;"/><path d="M1852.68,675.088c0,0 1.6,21.91 -14,39.18c0,0 -4.26,-5.13 -3.72,-6.72c0.54,-1.59 6.64,-26.01 11.1,-29.49c4.46,-3.47 6.62,-2.97 6.62,-2.97Z" style="fill:#ffb27d;fill-rule:nonzero;"/><path d="M1828.14,711.998c0,0 9.98,-0.08 10.54,2.27c0.56,2.35 -2.56,9.69 -9.86,7.13c-7.31,-2.56 -7.12,-4.16 -7.12,-4.16l6.44,-5.24Z" style="fill:#ffb27d;fill-rule:nonzero;"/><path d="M1834.96,707.548c0,0 -8.02,3.71 -5.29,7.66c2.72,3.95 8.17,1.59 9.01,-0.94c0.84,-2.53 -3.72,-6.72 -3.72,-6.72Z" style="fill:#ffb27d;fill-rule:nonzero;"/><path d="M1806.66,650.608c0,0 -10.46,9.74 -26.6,8.23c0,0 -7.96,-28.19 4.8,-31.65c12.75,-3.46 23.29,13.25 21.8,23.42Z" style="fill:#f9ddbf;fill-rule:nonzero;"/><path d="M1837.94,628.518l9.23,15.78c0,0 -1.19,7.32 -8.09,8.05c-6.91,0.73 -1.14,-23.83 -1.14,-23.83Z" style="fill:#f9ddbf;fill-rule:nonzero;"/><path d="M1789.55,569.888c0,0 -5.9,-3.19 -12.53,0c-6.63,3.2 -11.45,16.78 -8.48,29.47c2.97,12.69 -7.05,12.91 -2.42,23.08c1.65,3.61 23.43,6.68 24.17,-7.37c0.46,-8.71 -6.54,-9.14 -4.5,-18.6c2.04,-9.47 3.76,-26.58 3.76,-26.58Z" style="fill:#2c3a64;fill-rule:nonzero;"/><path d="M1783.93,817.488c1.9,22.36 7.98,54.33 7.98,54.33l11.08,2.56c-0.42,-6.11 3.2,-29.13 7.76,-54.88c-5.91,0.61 -16.79,1.09 -26.82,-2.01Z" style="fill:#f9ddbf;fill-rule:nonzero;"/><path d="M1803.3,871.808c0,0 2.67,4.88 7.74,6.02c3.19,0.71 5.92,2.39 7.61,4.74c1.43,1.98 0.02,4.74 -2.42,4.73l-25.77,-0.15c-2.19,-0.01 -3.9,-1.92 -3.66,-4.1c0.2,-1.9 0.41,-4.13 0.51,-5.83c0.21,-3.72 4.24,-7.06 4.24,-7.06c0,0 3.54,2.03 4.9,2.27c2.97,0.52 6.85,-0.62 6.85,-0.62Z" style="fill:#2c3a64;fill-rule:nonzero;"/><path d="M1664.41,538.708c0,0 0.37,-13.24 -17.09,-15.84c-17.46,-2.6 -22.28,1.49 -25.25,5.94c-2.97,4.45 -8.54,22.64 -7.98,29.87c0.56,7.24 20.47,16.19 20.15,20.41c-0.33,4.22 30.17,-40.38 30.17,-40.38Z" style="fill:#163560;fill-rule:nonzero;"/><path d="M1742.2,877.728c-0.35,4.42 5.81,5.41 12.93,5.67c7.12,0.26 4.99,1.75 14.76,3.39c9.77,1.64 13.65,-1.08 14.33,-2.41c0.62,-1.18 -3.94,-2.95 -8.8,-4.95c-0.61,-0.25 -1.22,-0.51 -1.83,-0.77c-5.47,-2.32 -8.59,-7.15 -12.89,-11.62c-4.07,-4.23 -8.06,-17.89 -8.06,-17.89l-13.29,-2.66c0,0 3.89,12.3 5.25,17.55c0.8,3.09 -0.28,6.56 -1.24,9.22c-0.52,1.44 -1.04,2.91 -1.16,4.47Z" style="fill:#ffb27d;fill-rule:nonzero;"/><path d="M1755.13,883.398c7.12,0.26 4.99,1.75 14.76,3.39c9.77,1.64 13.65,-1.08 14.33,-2.41c0.62,-1.18 -3.94,-2.95 -8.8,-4.95l-0.07,0.08c0,0 -6.83,2.42 -14.77,0.37c-6.47,-1.66 -12.76,-5.44 -17.22,-6.62c-0.52,1.44 -1.04,2.91 -1.16,4.47c-0.35,4.42 5.81,5.41 12.93,5.67Z" style="fill:#b24940;fill-rule:nonzero;"/><path d="M1639.93,712.058c0,0 88.19,4.63 103.3,17.12c15.11,12.48 18.59,135.57 18.59,135.57c-2.14,2.4 -3.81,2.43 -7.38,2.33c-3.42,-0.09 -10.53,-2.64 -10.53,-2.64c0,0 -21.76,-59.45 -22.68,-73.42c-0.92,-13.96 -5.06,-37.54 -11.1,-38.64c-6.04,-1.11 -76.69,10.21 -85.57,-11.45c-8.87,-21.67 3.17,-40.44 3.17,-40.44l12.2,11.57Z" style="fill:#163560;fill-rule:nonzero;"/><path d="M1598.5,733.948c3.79,2.54 13.59,3.94 24.96,4.35c20.36,0.74 45.75,-1.69 50.75,-6.41c1.3,-1.22 1.93,-3.24 2.11,-5.8c0.55,-7.81 -3.18,-20.66 -5.68,-31.29c-1.63,-6.91 -2.74,-12.88 -1.83,-15.93c2.76,-9.28 11.34,-28.2 12.08,-34.42c0.74,-6.22 -6.68,-39.53 -16.94,-43.66c-10.26,-4.13 -49.86,0 -49.86,0c-15.47,3.14 -16.12,36.12 -10.98,64.19c0.13,0.73 0.26,1.45 0.4,2.16c5.57,28.51 -15.58,59.72 -5.01,66.81Z" style="fill:#fff;fill-rule:nonzero;"/><path d="M1657.13,603.658c-0.28,1.81 -5.23,4.74 -15.82,1.95c-10.14,-2.67 -11.36,-5.97 -11.36,-8.16c0.01,-2.58 4.41,-6.06 4.36,-21.94l1.21,0.24l20.45,4.05c0,0 -0.47,6.43 -0.48,12.5c-0.01,5.09 2.1,8.35 1.64,11.36Z" style="fill:#ffb27d;fill-rule:nonzero;"/><path d="M1655.97,579.798c0,0 -0.47,6.43 -0.48,12.5c-11.44,-0.33 -17.49,-10.77 -19.97,-16.55l20.45,4.05Z" style="fill:#ed975d;fill-rule:nonzero;"/><path d="M1659.79,585.538c0,0 -27.07,0.44 -27.09,-16.42c-0.02,-16.86 -3.53,-28.16 13.76,-29.16c17.28,-1 20.65,5.43 22.02,11.06c1.38,5.63 -1.65,33.97 -8.69,34.52Z" style="fill:#ffb27d;fill-rule:nonzero;"/><path d="M1658.79,539.548c0,0 -7.41,19.78 -18.79,22.71c-11.37,2.92 -16.31,-0.13 -16.31,-0.13c0,0 8.73,-6.93 10.54,-19.03c0,0 18.97,-12.97 24.56,-3.55Z" style="fill:#163560;fill-rule:nonzero;"/><path d="M1656.95,541.148c0,0 5.54,4.42 6.89,8.71c1.35,4.3 1.95,13.14 4.53,12.84c0,0 5.58,-13.45 -0.69,-21.06c-6.66,-8.06 -10.73,-0.49 -10.73,-0.49Z" style="fill:#163560;fill-rule:nonzero;"/><path d="M1653.77,575.308c0,0 0.51,2.15 5.84,1.82c0,0 4.47,-0.28 4.33,-2.63c0,0 -4.33,-1.68 -10.17,0.81Z" style="fill:#fff;fill-rule:nonzero;"/><path d="M1683.94,882.548c0.15,4.43 6.38,4.72 13.48,4.17c7.11,-0.54 5.16,1.18 15.05,1.7c9.9,0.52 13.44,-2.62 13.98,-4.02c0.47,-1.24 -4.26,-2.48 -9.31,-3.92c-0.64,-0.18 -1.27,-0.36 -1.91,-0.55c-5.7,-1.69 -9.34,-6.14 -14.12,-10.09c-4.52,-3.74 4.09,-23.35 4.09,-23.35l-12.82,-5.47c0,0 -1.71,13.77 -4.18,25.87c-0.64,3.13 -2.96,8.34 -3.62,11.09c-0.35,1.49 -0.7,3.01 -0.64,4.57Z" style="fill:#ffb27d;fill-rule:nonzero;"/><path d="M1598.5,733.948c3.79,2.54 13.59,3.94 24.96,4.35c18.77,-4.27 40.15,-9.24 52.86,-12.21c0.55,-7.81 -3.18,-20.66 -5.68,-31.29c-14.83,4.53 -36.89,-10.89 -44.3,-16.99c-7.8,-6.4 -7.55,-27.73 -7.55,-27.73l-15.68,14.9c0.13,0.73 0.26,1.45 0.4,2.16c5.57,28.51 -15.58,59.72 -5.01,66.81Z" style="fill:#e0eafc;fill-rule:nonzero;"/><path d="M1697.42,886.718c7.11,-0.54 5.16,1.18 15.05,1.7c9.9,0.52 13.44,-2.62 13.98,-4.02c0.47,-1.24 -4.26,-2.48 -9.31,-3.92l-0.07,0.09c0,0 -6.5,3.18 -14.63,2.04c-6.62,-0.92 -13.29,-3.96 -17.86,-4.63c-0.35,1.49 -0.7,3.01 -0.64,4.57c0.15,4.43 6.38,4.72 13.48,4.17Z" style="fill:#c65447;fill-rule:nonzero;"/><path d="M1621.25,718.248c22.25,-1.72 89.05,0.23 102.3,9.07c16.31,10.88 -23.01,135.55 -23.01,135.55l-12.62,0c0,0 -7.34,-72.39 -2.78,-86.84c4.21,-13.35 6.95,-18.14 0.83,-18.62c-6.12,-0.49 -81.53,12.76 -88.97,-9.44c-5.81,-17.34 0.7,-33.97 0.7,-33.97c0,0 3.03,5.84 23.55,4.25Z" style="fill:#1c468a;fill-rule:nonzero;"/><path d="M1630.5,529.528c0,0 1.11,-7.07 -8.68,-8.89c-9.8,-1.82 -9.99,18.99 -11.04,24.01c-1.04,5.01 1.57,8.02 5.31,8.32c3.74,0.31 14.41,-23.44 14.41,-23.44Z" style="fill:#163560;fill-rule:nonzero;"/><path d="M1661.51,710.568c0,0 14.3,-1.59 17.4,-0.14c3.1,1.45 13.02,10.68 11.12,12.43c-1.9,1.74 -11.19,-3.1 -15.81,-3.25c-4.62,-0.14 -8.48,1.5 -11.65,0.48c-3.18,-1.03 -6.37,-2.87 -6.37,-2.87l5.31,-6.65Z" style="fill:#ffb27d;fill-rule:nonzero;"/><path d="M1661.51,710.568c0,0 7.25,-2.32 9.48,-3.95c0.28,-0.21 0.67,-0.09 0.81,0.23c0.38,0.89 0.59,2.52 -2.01,3.67c-3.74,1.66 -8.28,0.05 -8.28,0.05Z" style="fill:#ffb27d;fill-rule:nonzero;"/><path d="M1614.09,600.788c0,0 -15.49,1.31 -16.7,13.56c-0.92,9.3 -7.66,75.26 -2.8,81c13.65,16.14 44.17,20.88 61.61,21.87c0,0 2.1,-1.59 3.25,-2.9c1.05,-1.19 2.06,-3.75 2.06,-3.75c0,0 -47.79,-25.34 -47.05,-30.9c0.74,-5.57 14.49,-81.08 -0.37,-78.88Z" style="fill:#fff;fill-rule:nonzero;"/><path d="M2948.5,897.178l-2944.56,0c-2.167,0 -3.94,-1.77 -3.94,-3.94l0,-2.98c0,-2.17 1.773,-3.94 3.94,-3.94l2944.56,0c2.17,0 3.94,1.77 3.94,3.94l0,2.98c0,2.17 -1.77,3.94 -3.94,3.94Z" style="fill:#2e3552;fill-rule:nonzero;"/><path d="M1877.15,478.588l-275.6,0l0,-194.03l275.6,0l0,194.03Zm-279.12,-197.55l0,201.07l282.64,0l0,-201.07l-282.64,0Z" style="fill:#bad4f4;fill-rule:nonzero;"/><path d="M2176.24,478.588l-136.04,0l0,-194.03l136.04,0l0,194.03Zm-139.56,-197.55l0,201.07l143.09,0l0,-201.07l-143.09,0Z" style="fill:#bad4f4;fill-rule:nonzero;"/></svg>